<svg xmlns="http://www.w3.org/2000/svg" width="87.262" height="72.521" viewBox="0 0 87.262 72.521">
  <g id="Group_218215" data-name="Group 218215" transform="translate(-10605.605 3868.264)">
    <path id="Path_177319" data-name="Path 177319" d="M90.835,133.62h0a1.142,1.142,0,0,0,1.142-1.142l1.844-14.007c0-.631-2.355,0-2.986,0a1.142,1.142,0,0,0-1.142,1.142v12.866a1.142,1.142,0,0,0,1.142,1.142" transform="translate(10526.783 -3940.473)" fill="#84615e"/>
    <path id="Path_177320" data-name="Path 177320" d="M95.9,131.1h0a1.033,1.033,0,0,0,.866-1.142l1.4-14.007c0-.631-1.786,0-2.264,0a1.033,1.033,0,0,0-.866,1.142v12.866A1.033,1.033,0,0,0,95.9,131.1" transform="translate(10525.571 -3939.902)" fill="#6d4a47"/>
    <path id="Path_177321" data-name="Path 177321" d="M174.833,131.1h0a1.033,1.033,0,0,1-.866-1.142l-1.4-14.007c0-.631,1.786,0,2.264,0a1.033,1.033,0,0,1,.866,1.142v12.866a1.033,1.033,0,0,1-.866,1.142" transform="translate(10507.977 -3939.902)" fill="#6d4a47"/>
    <path id="Path_177322" data-name="Path 177322" d="M162.432,110.93v6.442a5.239,5.239,0,0,1-5.238,5.237H90.474a5.215,5.215,0,0,1-4.114-2c-.029-.033-.054-.066-.081-.1a.719.719,0,0,1-.052-.073c-.006-.008-.011-.016-.017-.025a5.208,5.208,0,0,1-.973-3.04V110.93Z" transform="translate(10527.794 -3938.826)" fill="#78828e"/>
    <path id="Path_177323" data-name="Path 177323" d="M164.295,89.447l-.812,3.894-2.424,11.612H85.227L81.992,89.447a11.247,11.247,0,0,1,.07-2.434,8.484,8.484,0,0,1,2.693-5.2,11.421,11.421,0,0,1,7.777-2.679h61.221a11.421,11.421,0,0,1,7.777,2.679,9,9,0,0,1,2.764,7.636" transform="translate(10528.538 -3931.611)" fill="#78828e"/>
    <path id="Path_177324" data-name="Path 177324" d="M163.483,95.655l-2.424,11.612H85.227L81.992,91.761a11.347,11.347,0,0,1,.07-2.434c10.737,3.838,40.549,13.128,66.88,8.7,5.85-.984,10.633-1.761,14.541-2.373" transform="translate(10528.537 -3933.924)" fill="#747e89"/>
    <path id="Path_177325" data-name="Path 177325" d="M152.893,117.348H97.652c-4.608.017-8.74-1.73-8.74-3.864v-1.142h71.621v1.142c0,2.134-3.776,4.083-7.64,3.864" transform="translate(10526.959 -3939.146)" fill="#53646d"/>
    <path id="Path_177326" data-name="Path 177326" d="M156.655,116H92.762c-4.608.017-3.864-1.73-3.864-3.864V111h71.621v1.142c0,2.134,0,4.083-3.864,3.864" transform="translate(10526.973 -3938.841)" fill="#69767f"/>
    <rect id="Rectangle_60238" data-name="Rectangle 60238" width="71.621" height="3.921" transform="translate(10615.871 -3829.829)" fill="#8996a3"/>
    <path id="Path_177327" data-name="Path 177327" d="M89.036,119.233c-1,.735-3.42.085-4.28-.918-.029-.033-.054-.066-.081-.1s-.036-.048-.052-.073c-.006-.008-.011-.017-.017-.025-.1-.156-.207-.325-.319-.5-2.3-3.668-6.612-11.808-6.34-13.721a4.046,4.046,0,0,1,.785-1.838c1.128-1.5,3.208-2.226,4.9-.357.1.11.2.228.3.357.214.272.434.585.659.932s.44.718.664,1.119a42.92,42.92,0,0,1,2.114,4.529,53.2,53.2,0,0,1,2.244,6.743c.073.283.135.555.189.81a5.334,5.334,0,0,1,.11.745,2.4,2.4,0,0,1-.878,2.3" transform="translate(10529.451 -3936.478)" fill="#78828e"/>
    <path id="Path_177328" data-name="Path 177328" d="M90.679,114.347c-2.424-1.15-5.6-8.394-5.736-8.187a3.682,3.682,0,0,1,1.24-2.467c.22.342.44.719.664,1.119a38.622,38.622,0,0,1,3.832,9.534" transform="translate(10527.86 -3937.184)" fill="#6d7c84"/>
    <path id="Path_177329" data-name="Path 177329" d="M85.491,104.107c-.029,2.222-.86,3.686-1.909,1.367a5.925,5.925,0,0,0-4.616-3.419c1.128-1.5,3.208-2.226,4.9-.357a13.341,13.341,0,0,1,1.624,2.409" transform="translate(10529.216 -3936.478)" fill="#8996a3"/>
    <path id="Path_177333" data-name="Path 177333" d="M162.353,81.812H85.577a11.421,11.421,0,0,1,7.777-2.679h61.221a11.421,11.421,0,0,1,7.777,2.679" transform="translate(10527.716 -3931.611)" fill="#8996a3"/>
    <path id="Path_177336" data-name="Path 177336" d="M139.1,140.633a43.621,43.621,0,0,1-5.781-.391c-3.7-.5-8.059-2.666-12.271-4.763-3.545-1.766-6.894-3.432-8.954-3.579l.14-1.961c2.448.175,5.8,1.845,9.691,3.78s8.277,4.121,11.656,4.574c9.552,1.28,18.349-.747,22.959-5.289a9.753,9.753,0,0,0,3.042-8.321c-.772-6.468-3.718-11.3-8.3-13.592-3.285-1.647-7.2-1.774-9.732-.314a10.065,10.065,0,0,1-9.309.606,8.986,8.986,0,0,1-4.951-6.848A2.561,2.561,0,0,0,126,102.515c-2.175-1.15-6.5.4-7.983,1.092l-.833-1.781c.636-.3,6.317-2.856,9.735-1.048a4.513,4.513,0,0,1,2.315,3.444,6.958,6.958,0,0,0,3.855,5.387,8.1,8.1,0,0,0,7.484-.535c3.133-1.8,7.684-1.7,11.594.261,5.189,2.6,8.515,7.971,9.367,15.117a11.652,11.652,0,0,1-3.614,9.953c-4.059,4-10.975,6.229-18.819,6.229" transform="translate(10521.699 -3936.376)" fill="#233c6c"/>
    <path id="Path_177337" data-name="Path 177337" d="M95.858,144.452H83.892a7.663,7.663,0,0,1-7.6-6.7l-.64-5.037a2.309,2.309,0,0,1,2.291-2.6h23.868a2.309,2.309,0,0,1,2.291,2.6l-.64,5.037a7.663,7.663,0,0,1-7.6,6.7" transform="translate(10529.974 -3943.18)" fill="#233c6c"/>
    <path id="Path_177338" data-name="Path 177338" d="M84.663,144.976a3.391,3.391,0,1,1-3.391-3.391,3.391,3.391,0,0,1,3.391,3.391" transform="translate(10529.463 -3945.782)" fill="#313d56"/>
    <path id="Path_177339" data-name="Path 177339" d="M83.774,145.345a2.132,2.132,0,1,1-2.132-2.132,2.132,2.132,0,0,1,2.132,2.132" transform="translate(10529.093 -3946.152)" fill="#6c7687"/>
    <path id="Path_177342" data-name="Path 177342" d="M83.469,127.022H82.011v-1.733a1.952,1.952,0,0,1,1.54-1.9l5.988-1.269a1.943,1.943,0,0,1,2.141,1.033l1.134,2.273-1.3.651L90.375,123.8a.487.487,0,0,0-.534-.257l-5.988,1.269a.487.487,0,0,0-.384.474Z" transform="translate(10528.526 -3941.355)" fill="#313d56"/>
    <path id="Path_177343" data-name="Path 177343" d="M103.753,130.722c0,2.431-6.2,3.34-13.783,3.34s-13.67-.91-13.67-3.34c0-1.279,1.618-2.515,4.255-3.4a29.752,29.752,0,0,1,9.18-1.312c.69,0,1.372.019,2.039.055.286.016.57.034.85.058a28.118,28.118,0,0,1,7.384,1.48c2.311.857,3.745,1.968,3.745,3.118" transform="translate(10529.821 -3942.248)" fill="#78828e"/>
    <path id="Path_177344" data-name="Path 177344" d="M93.651,126.125l-.547,5.74s-10.689,1.212-12.021-1.571a2.322,2.322,0,0,1,.109-2.319,1.779,1.779,0,0,1,1.051-.86,30.8,30.8,0,0,1,8.519-1.1c.69,0,1.372.018,2.039.055.286.016.571.034.851.058" transform="translate(10528.795 -3942.248)" fill="#3e4f6d"/>
    <path id="Path_177345" data-name="Path 177345" d="M96.621,131.881a33.37,33.37,0,0,0-.3-5.8c1.177.064,2.311.182,3.381.344a24.984,24.984,0,0,1,4.854,1.194c1.542,4.311-7.93,4.26-7.93,4.26" transform="translate(10525.279 -3942.264)" fill="#c9eef7"/>
    <path id="Path_177346" data-name="Path 177346" d="M85.652,130.751h0a.679.679,0,0,1-.679-.679V128.7a.679.679,0,1,1,1.358,0v1.368a.679.679,0,0,1-.679.679" transform="translate(10527.854 -3942.705)" fill="#ef776d"/>
    <path id="Path_177347" data-name="Path 177347" d="M89.206,130.751h0a.679.679,0,0,1-.679-.679V128.7a.679.679,0,1,1,1.358,0v1.368a.679.679,0,0,1-.679.679" transform="translate(10527.047 -3942.705)" fill="#ef776d"/>
    <path id="Path_177348" data-name="Path 177348" d="M93,130.751h0a.679.679,0,0,1-.679-.679V128.7a.679.679,0,1,1,1.358,0v1.368a.679.679,0,0,1-.679.679" transform="translate(10526.188 -3942.705)" fill="#313d56"/>
    <path id="Path_177349" data-name="Path 177349" d="M111.982,141H111a1.266,1.266,0,0,1-1.266-1.266v-.159A1.266,1.266,0,0,1,111,138.314h.978a.448.448,0,0,1,.448.447v1.8a.448.448,0,0,1-.448.448" transform="translate(10522.233 -3945.04)" fill="#1b263a"/>
    <path id="Path_177350" data-name="Path 177350" d="M102.65,128.66a23.143,23.143,0,0,1-4.591.267,1.351,1.351,0,0,1-1.1-.443,1.81,1.81,0,0,1-.078-1.243,7.959,7.959,0,0,1,.278-1.344,1.07,1.07,0,0,1,.985-.594h3.317a1.161,1.161,0,0,1,1.017.666,3.773,3.773,0,0,1,.349.978c.076.387.12.761.187,1.146a.455.455,0,0,1-.359.566" transform="translate(10525.169 -3942.088)" fill="#b3e1e8"/>
    <path id="Path_177351" data-name="Path 177351" d="M102.575,125.97a11.406,11.406,0,0,1-2.53.247,10.21,10.21,0,0,1-2.788-.32,1.158,1.158,0,0,1,.985-.594h3.317a1.161,1.161,0,0,1,1.017.666" transform="translate(10525.066 -3942.088)" fill="#e6fbff"/>
    <path id="Path_177438" data-name="Path 177438" d="M91.052,103.8c1.132-2.558,3.539-1.613,3.994.259-.372-1.907,2.514-3.4,2.971-.654.535-3.448,5.294-1.467,3.81,1.351a1.431,1.431,0,0,1,1.091,2.4c.831-.8,2.715-.189,2.106,1.109l-10.63-.032c-.857.123-4.384-1.824-3.341-4.434" transform="translate(10526.517 -3936.703)" fill="#fdeaea"/>
    <rect id="Rectangle_60247" data-name="Rectangle 60247" width="14.281" height="6.692" transform="translate(10617.378 -3835.128)" fill="none"/>
    <path id="Path_177439" data-name="Path 177439" d="M104.338,93.8a1.263,1.263,0,0,1-1.723.156c.883,2.318-3.469,1.92-1.8-.022-1.057.035-1.139-1.871-.012-1.4-.431-1.176,1.838-.889,1.673.1.679-1.528,2.874-.138,1.86,1.164" transform="translate(10524.445 -3934.478)" fill="#fdeaea"/>
    <rect id="Rectangle_60248" data-name="Rectangle 60248" width="4.609" height="3.778" transform="translate(10624.438 -3842.707)" fill="none"/>
    <rect id="Rectangle_60249" data-name="Rectangle 60249" width="4.609" height="3.778" transform="translate(10624.438 -3842.707)" fill="none"/>
    <path id="Path_177440" data-name="Path 177440" d="M129.766,137.712a3.234,3.234,0,0,0,.08.408.091.091,0,0,0,.115.05,11.958,11.958,0,0,0,2.477-.9c.052-.07,0,0-.066-.451-.107-.734-.324-1.794-.492-2.578-.131-.608-.233-1.053-.233-1.053a12.266,12.266,0,0,1-2.07-.264c-.094-.045-.141.3-.155.836-.029,1.233.273,2.863.345,3.955" transform="translate(10517.768 -3943.815)" fill="#313d56"/>
    <path id="Path_177441" data-name="Path 177441" d="M119.158,138.352a12.755,12.755,0,0,0,4.684.622l.117,0a12.994,12.994,0,0,0,3.454-.785l.24-.087A12.3,12.3,0,0,0,130,137.006c-.021-.148-.047-.312-.077-.485a.208.208,0,0,1-.006-.03c-.006-.033-.011-.064-.017-.1-.114-.643-.267-1.38-.391-1.967-.061-.01-.124-.019-.189-.028-.315-.046-1.268-.278-2.271-.454a14.208,14.208,0,0,0-1.438-.191l-.453.366a10.422,10.422,0,0,1-1.353,1.054,1.483,1.483,0,0,1-.41.2c-.337.122-.774.241-.958.3-1.248.4-2.9-.025-3.405,1.993-.005.022-.017.043-.025.067a.626.626,0,0,1-.022.061.076.076,0,0,1,0,.017.476.476,0,0,0,.18.54" transform="translate(10520.143 -3944.005)" fill="#3e4f6d"/>
    <path id="Path_177442" data-name="Path 177442" d="M119.158,139.156a1.1,1.1,0,0,0,.152.107,8.266,8.266,0,0,0,4.029.668,14.042,14.042,0,0,0,4.076-.941l.239-.087A12.381,12.381,0,0,0,130,137.812c-.021-.149-.047-.313-.077-.485-.034,0-.044-.011-.018-.026-3.289,1.76-7.9,3.021-10.872,1.17-.007.021-.018.042-.025.066l-.022.062a.1.1,0,0,1-.005.017.478.478,0,0,0,.181.54" transform="translate(10520.142 -3944.81)" fill="#313d56"/>
    <path id="Path_177443" data-name="Path 177443" d="M124.143,136.085a3.333,3.333,0,0,1,.8-.5,1.971,1.971,0,0,0,.826-.867c.029-.061.154-.04.124.022a2.041,2.041,0,0,1-.8.88,4.553,4.553,0,0,0-.76.438c-.506.484.368.482.659.468a4.842,4.842,0,0,0,3.03-1.236c.054-.051.148.018.094.069a5,5,0,0,1-3.523,1.275c-.4-.017-.761-.223-.457-.551" transform="translate(10518.991 -3944.216)" fill="#313d56"/>
    <path id="Path_177444" data-name="Path 177444" d="M127.905,134.644a7.379,7.379,0,0,1-3.146,1.572c-1.139.038,1.948-.784,1.7-1.634-.159-.554,1.442.061,1.442.061" transform="translate(10518.883 -3944.14)" fill="#313d56"/>
    <path id="Path_177445" data-name="Path 177445" d="M124.7,135.373c2.21.194.646-.012,1.3.364a6.643,6.643,0,0,0,3.253.693c.691.165,1.7-.543,1.953-.035-.114-.643-.267-1.38-.391-1.967-.061-.01-.124-.019-.189-.028-.316-.046-1.268-.277-2.271-.454a14.194,14.194,0,0,0-1.437-.191l-.453.366a10.423,10.423,0,0,1-1.353,1.054,1.484,1.484,0,0,1-.41.2" transform="translate(10518.84 -3944.005)" fill="#313d56"/>
    <path id="Path_177446" data-name="Path 177446" d="M124.5,136.107a3.056,3.056,0,0,1,1.559.758c.053.05-.056.107-.108.056a2.91,2.91,0,0,0-1.48-.714c-.08-.015-.051-.116.029-.1" transform="translate(10518.902 -3944.538)" fill="#1b263a"/>
    <path id="Path_177447" data-name="Path 177447" d="M125.728,135.487a19.032,19.032,0,0,0,2.249.82c.073.029.047.123-.03.1a14.359,14.359,0,0,1-2.306-.844c-.068-.035.019-.111.087-.077" transform="translate(10518.631 -3944.396)" fill="#1b263a"/>
    <path id="Path_177448" data-name="Path 177448" d="M128.063,109.272a1.883,1.883,0,0,1,.836,1.129,32.366,32.366,0,0,1,.809,5.868c.432,4.472.988,6.9,1,12.907,0,.214-.841.837-2.241,1.007-1.307.158-3.957.291-4.523-.906a5.172,5.172,0,0,1-.111-1.5c-.087-1.242,0,.613-.157-2.727a41.694,41.694,0,0,0-.707-5.973c-.239-1.226-.557-2.436-.768-3.667-.208-1.215-.074-2.509-.37-3.7a14.757,14.757,0,0,1,.263-2.166c.2-.948,1.862-.772,2.537-.726,1.06.073,2.489-.115,3.426.457" transform="translate(10519.488 -3938.336)" fill="#2e497c"/>
    <path id="Path_177449" data-name="Path 177449" d="M139.057,100.138c-.358,1.865-.354,2.588-1.824,3.545-.875.571-2.3,1.487-3.8,2.568-2.287,1.654-4.75,3.7-5.7,5.485-.651,1.221-1.311,1.469-1.433,1.5a2.75,2.75,0,0,1-3.221.014,3.656,3.656,0,0,1-1.2-2.757,14.2,14.2,0,0,1-.047-2.124,14.745,14.745,0,0,1,.264-2.166,2.317,2.317,0,0,1,.2-.71,24.529,24.529,0,0,1,3-3.445c1.451-1.436,3.2-3.008,5.3-5.02.739-.71,1.521-1.474,2.349-2.308,2.3-2.314,6.767,1.967,6.11,5.417" transform="translate(10519.494 -3934.999)" fill="#2e497c"/>
    <path id="Path_177450" data-name="Path 177450" d="M140.809,94.58c-.358,1.865,1.3,8.256-.166,9.214-.874.57-2.3,1.486-3.8,2.567,1.681-5.143,3.462-12.35,3.963-11.781" transform="translate(10516.083 -3935.108)" fill="#233c6c"/>
    <path id="Path_177451" data-name="Path 177451" d="M136.5,100.456c-3.449.283-6.737.673-10.185,2.464,1.451-1.436,3.205-3.008,5.3-5.02Z" transform="translate(10518.472 -3935.869)" fill="#233c6c"/>
    <path id="Path_177452" data-name="Path 177452" d="M131.05,113.435a.093.093,0,0,0,0-.029,5.092,5.092,0,0,0-.823-1.972c-.071-.1-.242-.005-.169.1a4.972,4.972,0,0,1,.747,1.665,5.092,5.092,0,0,0-2.513-1.205c-.124-.022-.177.168-.052.189a4.921,4.921,0,0,1,2.649,1.359.1.1,0,0,0,.162-.106" transform="translate(10518.052 -3938.93)" fill="#233c6c"/>
    <path id="Path_177453" data-name="Path 177453" d="M132.187,74.435a5.744,5.744,0,0,1-4.794-.024c.061-.126,1.761-1.573,1.627-1.763A.26.26,0,0,1,129,72.62c-.039-.058-.107-.173-.193-.321-.353-.6-.993-1.74-.993-1.74l1.063-1.719.376-.608,1.1-1.789s1.639,3.705,2.752,4.523c.633.465.952,2.332-.923,3.47" transform="translate(10518.229 -3928.73)" fill="#ffa594"/>
    <path id="Path_177454" data-name="Path 177454" d="M130.339,69.142s1.655,2.214-1.215,4.049c-.039-.059-.107-.174-.193-.322-.353-.6-.994-1.739-.994-1.739L129,69.411a.923.923,0,0,1,1.328-.274l.009.005" transform="translate(10518.104 -3929.302)" fill="#e07e73"/>
    <path id="Path_177455" data-name="Path 177455" d="M127.626,83.872c-.015.134-.046.295-.084.478-.008.039-.018.08-.028.124a22.327,22.327,0,0,1-.743,2.4.316.316,0,0,1-.014.037c-.028.075-.055.154-.084.23-.006.018-.012.036-.018.053-.014.037-.028.074-.043.114s-.039.1-.06.158c-.056.147-.114.3-.172.448-.014.039-.03.079-.047.121-.193.493-.4.993-.615,1.486-.039.089-.077.175-.117.261-.047.1-.092.209-.139.313-.187.413-.377.814-.571,1.2q-.17.34-.344.659c-.008.018-.018.033-.025.049-.019.037-.039.073-.061.108-.138.251-.273.489-.409.71-.1.167-.2.322-.3.464-.077.112-.152.214-.226.311-.047.056-.093.114-.136.165l-.005.006a2.2,2.2,0,0,1-.387.366,1.046,1.046,0,0,1-.118.073.034.034,0,0,1-.012.008l-.006,0a1.569,1.569,0,0,1-.173.071,1.409,1.409,0,0,1-1.413-.423,3.345,3.345,0,0,1-.37-.391c-.6-.739-.857-.749-.832-.83.175-.564.307-1.075.488-1.681a3.34,3.34,0,0,0,.474-1.3.316.316,0,0,1,.009-.047c.053-.254.1-.492.155-.676.213-.712.409-1.432.643-2.138.057-.179.118-.356.182-.533a11.45,11.45,0,0,1,2.1-3.453l.034-.033a2.677,2.677,0,0,1,1.321-.79,1.574,1.574,0,0,1,1.107.186,2.365,2.365,0,0,1,.273.187,2.429,2.429,0,0,1,.445.482,2.181,2.181,0,0,1,.322.637,1.148,1.148,0,0,1,0,.391" transform="translate(10519.891 -3932.251)" fill="#f79386"/>
    <path id="Path_177456" data-name="Path 177456" d="M121.566,93.441c-.006.022-.014.043-.022.065-.018.047-.036.092-.053.138a6.018,6.018,0,0,1-.285.629c-.067.134-.14.264-.216.387a2.313,2.313,0,0,1-.492.509l-.1.083c-.061.047-.116.094-.169.144-.186.171-.326.289-.338.3a28.083,28.083,0,0,1-4.438,4.594c-.492.4.486,1.549-.573,2.889-.747.944-4.084,1.13-3.739.849,2-1.62.828-.353.828-.353l-.019,0c-.913.22-1.208.763-1.96,1.122-.327.156-.96.383-1.1.2-.159-.212.409-.891.728-1.272.836-1,.815-1.181,1.521-1.942a12.119,12.119,0,0,0,2.22-2.079c.571-.9.891-1.974,1.377-2.92,1-1.95,2.48-3.616,3.454-5.565.1-.192.191-.389.285-.586a.306.306,0,0,1,.02-.039c.2-.427.409-.856.646-1.257l-.005.006c.022-.071.381-.772.762-1.484.466-.871.983-1.791.907-1.5-.106.407,1.663.875,2.1.915.419.037.087.511-.2.945-.255.386-.475.738-.1.718,1.209-.067-.818,3.861-1.048,4.5" transform="translate(10522.432 -3933.239)" fill="#f79386"/>
    <path id="Path_177457" data-name="Path 177457" d="M126.833,88.888l-.173.448c-.014.039-.029.079-.047.12-.193.493-.4.993-.615,1.487-.039.088-.077.175-.116.261-.047.1-.092.208-.139.312-.187.413-.378.814-.571,1.2-.114.226-.228.446-.344.659-.008.017-.018.033-.025.049-.02.037-.039.073-.061.108-.138.252-.273.489-.409.71-.1.167-.2.322-.3.464-.067.134-.14.264-.216.387a2.3,2.3,0,0,1-.492.509c-.019.01-.037.018-.055.028,0-.026.006-.051.008-.077a12,12,0,0,0,.242-1.634,2.782,2.782,0,0,0-.356-1.376,2.721,2.721,0,0,0-.46-.572c-.274-.26-1.017-.571-1.388-.893,0,0-.005-.006-.01-.008s.012-.026.02-.039c.053-.254.1-.492.155-.676.212-.711.409-1.431.642-2.137l.606.078.731.1c.1.012.2.026.308.039a.187.187,0,0,0,.036,0c.578.074,1.154.149,1.732.222.331.043.663.087.993.128l.08.012h.006c0,.01-.024.026-.012.03.085.023.163.045.234.063" transform="translate(10519.609 -3933.672)" fill="#e07e73"/>
    <path id="Path_177458" data-name="Path 177458" d="M128.637,84.429a9.836,9.836,0,0,0-.613.991c-.71,1.249-1.74,3.157-2.124,3.252a5.834,5.834,0,0,1-3.069-.613c-.751-.311-1.41-.649-1.74-.826a.418.418,0,0,1-.218-.382v0c0-.047,0-.094.008-.141,3.327-8.669,4.407-10.1,4.407-10.1.09.288,5.4,5.33,3.35,7.817" transform="translate(10519.707 -3931.038)" fill="#fff"/>
    <path id="Path_177459" data-name="Path 177459" d="M128.023,86.488c-.71,1.249-1.74,3.157-2.124,3.252a5.826,5.826,0,0,1-3.069-.613c.016-.191.039-.387.071-.59a13.994,13.994,0,0,1-2.029-.619c0-.047,0-.094.008-.141a13.37,13.37,0,0,0,2.042.633c3.068-.751,2.507-7.086,2.507-7.086Z" transform="translate(10519.707 -3932.107)" fill="#eaeaea"/>
    <path id="Path_177460" data-name="Path 177460" d="M130.18,85.819a14.354,14.354,0,0,0,1.908,2.416c2,.015,1.264,1.555,3.266,1.538,1.456-.012,1.439.9,2.9.857a4.663,4.663,0,0,1,1.974.187c.717.315.776,1.3,1.379,1.518.648.231,3.087-1.085,3.5-1.419,0,0,.836-2.59.843-2.757.19-4.755-2.679-5.41-4.2-8.859a24.074,24.074,0,0,0-2.437-4.437,8.05,8.05,0,0,0-6.5-3.3h0a.3.3,0,0,0-.257.144c-.391.7-2.182,3.629-3.948,2.29,0,0-.187.115-.463.3l-.118.077a15.175,15.175,0,0,0-1.5,1.1.559.559,0,0,0-.2.462,31.849,31.849,0,0,0,3.861,9.891" transform="translate(10518.472 -3929.893)" fill="#fff"/>
    <path id="Path_177461" data-name="Path 177461" d="M138.456,79.625a33.264,33.264,0,0,1,1.533,7.155c0,1.585,5.171,2.124,5.155,2.1-3.519-4.833-3.827-6.942-4.208-8.206,0-.011-.424-1.428-.435-1.432-1.293-.389-1.5-.19-2.039.338a.035.035,0,0,0-.005.045" transform="translate(10515.718 -3931.589)" fill="#eaeaea"/>
    <path id="Path_177462" data-name="Path 177462" d="M128.52,74.9a2.032,2.032,0,0,0,1.964.516,3.474,3.474,0,0,0,1.934-1.421c.041-.061-.048-.136-.089-.075a3.382,3.382,0,0,1-1.705,1.329,1.9,1.9,0,0,1-1.118.1,2.458,2.458,0,0,1-.891-.516h0l-.094.068" transform="translate(10517.973 -3930.422)" fill="#eaeaea"/>
    <path id="Path_177463" data-name="Path 177463" d="M142.951,87.691a2.231,2.231,0,0,1-.22.078c-3.985,1.313-6.182,2.453-9.063,3.041-1.194.244-5.621-5.388-5.994-6.239a22.86,22.86,0,0,1-1.731-7.3,5.334,5.334,0,0,1,.455-1.706.075.075,0,0,1,.024-.036l.424-.4.225-.214a.958.958,0,0,1,.324-.185c.068-.014.111.014.078.131a10.481,10.481,0,0,0,.406,4.925c-.026.1-.039.244.018.219,1.61-.69,2.156-.825,3.766-1.514,0,0,.325-2.226.424-3.777a4.87,4.87,0,0,1,.783-2.534,2.222,2.222,0,0,1,1.6-.644c2.848-.141,4.8,3.514,4.771,3.543a18.869,18.869,0,0,0-3-2.543c-.948-.624-1.855-.932-2.506-.025-.444.618-1.64,4.246,0,6.593,1.861,2.73,3.162,6.356,9.51,7.023.708.074,3.853-.171,2.474.938-.013.007-2.752.623-2.765.629" transform="translate(10518.558 -3929.885)" fill="#2e497c"/>
    <path id="Path_177464" data-name="Path 177464" d="M137.5,86.865q-.342-.509-.646-1.044a17.813,17.813,0,0,1-1.054-2.207.057.057,0,0,0,0-.064.22.22,0,0,0-.053-.06l0-.013a.056.056,0,0,0-.069-.032.63.63,0,0,0-.455.059c-.452.2-.879.462-1.332.663a16.693,16.693,0,0,1-2.887.982l-.031.007-.016,0a.018.018,0,0,0-.009,0s0,0-.007,0c-.259.059-.956.059-1.047.342s.049.632.225,1.17c.145.448.238.8.38,1.152.011.032.025.063.039.1.027.068.058.137.091.206.063.131.137.267.223.411.231.38.471.759.706,1.137.137.225.261.58.571.636a3.744,3.744,0,0,0,1.171-.128,11.151,11.151,0,0,0,1.116-.259,11.513,11.513,0,0,0,2.467-1.02c.412-.23,1.221-.585,1.158-1.132-.038-.334-.363-.642-.54-.909m.283,1.29a1.4,1.4,0,0,1-.315.261,9.586,9.586,0,0,1-.945.55,11.61,11.61,0,0,1-1.982.8,11.045,11.045,0,0,1-1.136.278,4.315,4.315,0,0,1-1.055.148c-.359-.032-.441-.189-.6-.442l-.248-.4a9.35,9.35,0,0,1-.521-.84c-.1-.206-.183-.384-.254-.542-.053-.118-.1-.226-.144-.327-.013-.035-.026-.066-.04-.1a10.522,10.522,0,0,1-.339-1,4.37,4.37,0,0,1-.145-.837c.006-.268.3-.291.6-.36l.261-.061.022,0c.019,0,.035-.009.053-.012l.012,0c.186-.044.4-.1.562-.141a16.821,16.821,0,0,0,2.083-.726q.508-.215,1-.464c.173-.087.761-.5.992-.357a20.012,20.012,0,0,0,2.1,3.87c.153.227.252.452.039.709" transform="translate(10517.667 -3932.584)" fill="#233c6c"/>
    <path id="Path_177465" data-name="Path 177465" d="M130.9,86.219a24.692,24.692,0,0,0,4.571-1.711c.075-.037.119.072.045.109a24.9,24.9,0,0,1-4.605,1.72c-.08.021-.09-.1-.011-.118" transform="translate(10517.444 -3932.828)" fill="#233c6c"/>
    <path id="Path_177466" data-name="Path 177466" d="M128.565,82.271a32.8,32.8,0,0,0,5.14-2.191.059.059,0,1,1,.053.105,32.989,32.989,0,0,1-5.173,2.2c-.079.026-.1-.091-.02-.117" transform="translate(10517.974 -3931.823)" fill="#a0253d"/>
    <path id="Path_177467" data-name="Path 177467" d="M147.6,86.877c2.206-.287-4.49-10.3-6.485-13.306-.195-.293,2.868,2.684,8.691,13.02Z" transform="translate(10515.117 -3930.344)" fill="#2e497c"/>
    <path id="Path_177468" data-name="Path 177468" d="M157.872,140.938a3.627,3.627,0,0,0,.154.415.091.091,0,0,0,.124.033,10.182,10.182,0,0,0,2.159-1.226c.039-.082.149-.154,0-.616-.24-.754-.651-1.83-.962-2.625-.243-.618-.426-1.067-.426-1.067a11.841,11.841,0,0,1-2.116.082c-.1-.031-.087.341,0,.905.2,1.3.8,2.963,1.068,4.1" transform="translate(10511.569 -3944.481)" fill="#313d56"/>
    <path id="Path_177469" data-name="Path 177469" d="M147.593,143.132a12.308,12.308,0,0,0,4.792-.161l.116-.024a12.629,12.629,0,0,0,3.306-1.426c.072-.044.147-.088.223-.134a12.237,12.237,0,0,0,2.141-1.555c-.048-.152-.1-.321-.165-.5a.21.21,0,0,1-.012-.031c-.012-.032-.022-.065-.035-.1-.231-.656-.519-1.4-.751-2-.063,0-.128,0-.193,0-.324.007-1.317-.071-2.351-.083a13.669,13.669,0,0,0-1.47.049l-.385.464a10.682,10.682,0,0,1-1.159,1.344,1.452,1.452,0,0,1-.373.277c-.315.187-.728.389-.9.483-1.172.642-3.269.625-3.037,2.687a.3.3,0,0,1-.012.075.6.6,0,0,1-.012.069.078.078,0,0,1,0,.019.524.524,0,0,0,.279.537" transform="translate(10513.708 -3944.77)" fill="#3e4f6d"/>
    <path id="Path_177470" data-name="Path 177470" d="M147.593,143.773a1.1,1.1,0,0,0,.171.086,8,8,0,0,0,4.145,0,13.647,13.647,0,0,0,3.9-1.7l.223-.132a12.276,12.276,0,0,0,2.141-1.555c-.049-.153-.1-.321-.165-.5-.035,0-.046,0-.023-.023-2.962,2.421-7.34,4.55-10.643,3.12,0,.023-.01.048-.012.074s-.008.047-.012.069a.087.087,0,0,1,0,.019.524.524,0,0,0,.279.536" transform="translate(10513.709 -3945.412)" fill="#313d56"/>
    <path id="Path_177471" data-name="Path 177471" d="M152.019,140.143a3.353,3.353,0,0,1,.709-.662,2.059,2.059,0,0,0,.666-1.054c.017-.07.146-.07.128,0a2.134,2.134,0,0,1-.633,1.064,4.573,4.573,0,0,0-.679.591c-.416.6.456.444.744.377a4.776,4.776,0,0,0,2.8-1.827c.045-.063.151-.006.107.056a4.916,4.916,0,0,1-3.285,1.953c-.4.052-.8-.1-.557-.5" transform="translate(10512.656 -3945.053)" fill="#313d56"/>
    <path id="Path_177472" data-name="Path 177472" d="M155.524,137.949a7.36,7.36,0,0,1-2.853,2.2c-1.13.238,1.8-1.163,1.4-2.014-.261-.554,1.451-.186,1.451-.186" transform="translate(10512.551 -3944.929)" fill="#313d56"/>
    <path id="Path_177473" data-name="Path 177473" d="M152.442,139.263a8.261,8.261,0,0,0,4.949-.623c.554-.251,1.216.624,1.734.568-.232-.657-.52-1.4-.751-2-.063,0-.128,0-.193,0-.324.007-1.317-.071-2.351-.082a13.861,13.861,0,0,0-1.47.049l-.386.464a10.624,10.624,0,0,1-1.158,1.344,1.486,1.486,0,0,1-.373.277" transform="translate(10512.544 -3944.771)" fill="#313d56"/>
    <path id="Path_177474" data-name="Path 177474" d="M152.293,140.194a3.039,3.039,0,0,1,1.7.526c.062.044-.037.121-.1.078a2.893,2.893,0,0,0-1.608-.494c-.083,0-.072-.113.011-.111" transform="translate(10512.593 -3945.466)" fill="#1b263a"/>
    <path id="Path_177475" data-name="Path 177475" d="M153.409,139.329a18.681,18.681,0,0,0,2.4.472c.079.017.07.121-.012.111a14.065,14.065,0,0,1-2.458-.487c-.074-.025,0-.119.073-.1" transform="translate(10512.348 -3945.269)" fill="#1b263a"/>
    <path id="Path_177476" data-name="Path 177476" d="M148.721,90.408c-.116-.388-11.563,3.138-11.563,3.138a8.573,8.573,0,0,0-.779,2.374c-.394,1.757,2,.4,2.559,2.182s2.647,14.98,2.734,15.352,3.862,1.276,4.826-.667,4.018-16.372,2.223-22.379" transform="translate(10516.198 -3934.162)" fill="#2e497c"/>
    <path id="Path_177477" data-name="Path 177477" d="M139.5,95.579s-.26,17.53,2.278,21.128a62.4,62.4,0,0,1,5.709,9.205c.262.577.509,1.11.736,1.584.628,1.307,1.113,2.167,1.385,2.251,1.111.339,5.465-1.994,5.975-2.535a6.419,6.419,0,0,0-.661-2.577c-.2-.567-.447-1.206-.721-1.893-1.678-4.226-5.412-8.552-6.209-12.754a36.539,36.539,0,0,0-1.927-5.214c-1.237-1.48-5.364-10.2-6.567-9.2" transform="translate(10515.482 -3935.324)" fill="#2e497c"/>
    <path id="Path_177478" data-name="Path 177478" d="M151.756,125.934c-1.566-4.247-5.2-7.225-7.2-11.227a10.541,10.541,0,0,1-.982-6.959c.47-2.331,1.461-4.515,1.986-6.83a34.061,34.061,0,0,0,.554-8.283.092.092,0,0,0-.06-.087,10,10,0,0,0,2.207-1.125c.1-.071.005-.242-.1-.17a15.107,15.107,0,0,1-7.113,2.117c-1.2.129-2.4.235-3.586.43a38.748,38.748,0,0,0-3.8.857.1.1,0,0,0,.053.189,38.668,38.668,0,0,1,3.8-.857h.007a23.083,23.083,0,0,1,.332,3.633.1.1,0,0,0,.1.1c.268-.022.774.043,1.007-.134.2-.151.152-.523.16-.732a18.8,18.8,0,0,0-.137-3.064c.745-.087,1.494-.161,2.24-.243a.2.2,0,0,0,.005.02c1.033,1.978,2.377,3.9,4.536,4.73a.055.055,0,0,0,.016,0,21.8,21.8,0,0,1-.331,2.2c-.476,2.31-1.448,4.478-1.974,6.775a10.632,10.632,0,0,0,.45,6.521,24.4,24.4,0,0,0,3.49,5.572,25.854,25.854,0,0,1,4.154,6.621c.043.118.233.066.19-.053M138.928,95.693q.013.484,0,.969c-.009.339.037.631-.4.814a.658.658,0,0,1-.428,0c-.137-.118-.066-.68-.078-.867q-.023-.462-.068-.922c-.056-.577-.137-1.151-.234-1.722.356-.056.714-.1,1.072-.148a18.843,18.843,0,0,1,.143,1.879m2.5-2.168.184-.02a19.559,19.559,0,0,0,4.311-.908.1.1,0,0,0-.007.038A47.587,47.587,0,0,1,145.8,98.1c-2.078-.81-3.373-2.674-4.373-4.577" transform="translate(10516.822 -3934.357)" fill="#233c6c"/>
    <path id="Path_177479" data-name="Path 177479" d="M147.555,89.983c-4.368,2.232-9.6,1.2-14,3.362-.114.056-.014.225.1.169,4.393-2.159,9.624-1.128,14-3.361.113-.058.014-.227-.1-.17" transform="translate(10516.84 -3934.07)" fill="#233c6c"/>
    <path id="Path_177480" data-name="Path 177480" d="M129.99,130.074a77.677,77.677,0,0,1-1.811-16.19.1.1,0,0,0-.2,0,77.919,77.919,0,0,0,1.818,16.242c.027.123.216.071.189-.053" transform="translate(10518.094 -3939.475)" fill="#233c6c"/>
    <path id="Path_177481" data-name="Path 177481" d="M136,103.055l-6.713,5.824c-.1.083.043.221.139.139l6.713-5.824c.1-.083-.044-.222-.139-.139" transform="translate(10517.806 -3937.033)" fill="#233c6c"/>
    <path id="Path_177482" data-name="Path 177482" d="M129.347,67.26a2.852,2.852,0,0,1-1.929,3.4c-1.692.731-2.482.584-3.1-.4a13.961,13.961,0,0,1-1.273-2.468.105.105,0,0,1-.008-.022c-.493-1.293-1.221-2.724-.2-3.971q.123-.152.247-.289c3.2-3.565,5.759-.017,6.27,3.746" transform="translate(10519.38 -3927.731)" fill="#ffa594"/>
    <path id="Path_177483" data-name="Path 177483" d="M127.195,65.026a27.444,27.444,0,0,1-4.151,3.105.124.124,0,0,1-.009-.022c-.493-1.293-1.221-2.725-.2-3.972.082-.1.165-.2.247-.288a4.072,4.072,0,0,1,1.164-.322c.056.14,4.167.436,2.952,1.5" transform="translate(10519.379 -3928.067)" fill="#e07e73"/>
    <path id="Path_177484" data-name="Path 177484" d="M128.726,65.28c.017.079.232,1.041.715,1.092a.506.506,0,0,0,.342-.109c.557-.434-.282-1.662-.5-3.944a2.77,2.77,0,0,0-.574-1.632,2.2,2.2,0,0,0-.4-.375,9.631,9.631,0,0,0-1.113-.639c-1.41-.393-3.171.676-4.137,1.972-.908,1.221-1.457,3.242-.84,3.325.649.087.649-1.531,3.078-1.65.376-.018.649.141,2.675,1.465.315.206.575.377.753.495" transform="translate(10519.461 -3927.176)" fill="#363636"/>
    <path id="Path_177485" data-name="Path 177485" d="M129.336,66.788a2.025,2.025,0,0,1,.162-1.144c.221-.37.434-.768.924-.585,1.071.4.935,2.717-.138,2.465-.6-.139-.866-.417-.948-.736" transform="translate(10517.793 -3928.406)" fill="#ffa594"/>
    <path id="Path_177486" data-name="Path 177486" d="M129.994,66.349a1.131,1.131,0,0,1,.453-.56c.074-.048.155.063.08.111a1.02,1.02,0,0,0-.221.193c.225.039.319.35.37.543.022.084-.106.134-.128.048-.036-.138-.118-.475-.3-.458a.063.063,0,0,1-.032,0,1.052,1.052,0,0,0-.094.186c-.031.083-.155.025-.124-.058" transform="translate(10517.639 -3928.58)" fill="#e07e73"/>
    <path id="Path_177487" data-name="Path 177487" d="M128.847,61.287l-.165.118,0,0-.006,0-.008.006-.009.005-.009.006c-.1.073-.209.142-.309.212q-.249.166-.492.321c-.112.07-.223.138-.332.2-.093.056-.186.111-.278.164-.036.022-.073.043-.11.063a.264.264,0,0,1-.025.013c-3.979,2.258-6.459,1.617-6.459,1.617a12.514,12.514,0,0,1,.134-2.37c.1-.776,1.1-1.712,2.468-2.35.06-.027.118-.055.179-.08a6.573,6.573,0,0,1,.652-.245c.046-.014.088-.029.134-.042l.131-.037.135-.034c.044-.012.089-.022.134-.031s.09-.02.135-.029.089-.017.133-.025c.09-.015.179-.028.269-.038.134-.015.267-.026.4-.028a3.2,3.2,0,0,1,2.8,1.55c-.052.045-.117.1-.2.158-.04.028-.083.059-.133.09s-.1.063-.157.1-.135.075-.212.114l.121.193,0,0,.021.032.109.173s.081-.035.2-.1c.079-.043.175-.1.276-.164a2.594,2.594,0,0,0,.224-.162,3.233,3.233,0,0,1,.247.586" transform="translate(10519.763 -3926.977)" fill="#f8feff"/>
    <path id="Path_177488" data-name="Path 177488" d="M126.39,63.489a23.594,23.594,0,0,1-4.521,3.313,9.807,9.807,0,0,1-2.209.855,5.389,5.389,0,0,1-1.791.261c-.206-.017-.427-.138-.352-.417.09-.341.638-.489.909-.6a5.578,5.578,0,0,0,1.9-1.573s2.237.147,6.059-1.839" transform="translate(10520.473 -3928.061)" fill="#eaeaea"/>
    <path id="Path_177489" data-name="Path 177489" d="M125.694,63.943s-.479.417-1.2.966a15.226,15.226,0,0,1-4.441,2.533c-2.316.612-3.323.72-2.122-.683a8.061,8.061,0,0,1,1.617-1.32c.036-.024.068-.046.1-.065.162-.105.267-.164.267-.164a3.29,3.29,0,0,0,1.56,0l.014,0a19.778,19.778,0,0,0,4.208-1.259" transform="translate(10520.49 -3928.164)" fill="#f8feff"/>
    <path id="Path_177490" data-name="Path 177490" d="M129.143,60.864c.156.3.291.55.287.553l-.009.006-.008.006c-.1.073-.209.142-.309.212-.167.111-.33.217-.492.321-.112.07-.223.138-.332.2s-.186.11-.279.163c-.036.022-.073.043-.11.064A4.751,4.751,0,0,0,124.01,59.3v0c.06-.028.119-.055.179-.08a6.59,6.59,0,0,1,.652-.246c.045-.014.088-.029.133-.041l.132-.037c.045-.013.09-.024.135-.035s.089-.021.134-.031.089-.02.135-.028l.133-.026c.09-.014.179-.027.269-.037.134-.015.267-.026.4-.028a3.2,3.2,0,0,1,2.8,1.549,2.293,2.293,0,0,1-.2.158c-.04.029-.083.06-.132.09s-.1.063-.158.1a.224.224,0,0,0-.09.308l0,0,.022.032a.235.235,0,0,0,.308.074c.079-.043.176-.1.275-.164" transform="translate(10518.995 -3926.977)" fill="#eaeaea"/>
    <path id="Path_177491" data-name="Path 177491" d="M126.348,63.943s-.479.417-1.2.966a7.431,7.431,0,0,1-4.846.464c.162-.105.267-.164.267-.164a3.29,3.29,0,0,0,1.56,0l.014,0a16.456,16.456,0,0,0,4.208-1.259" transform="translate(10519.837 -3928.164)" fill="#eaeaea"/>
    <path id="Path_177492" data-name="Path 177492" d="M124.066,59.432a.062.062,0,0,0,.037.033,9.57,9.57,0,0,1,2.369,1.045,3.083,3.083,0,0,1,.842,1.017c.2.335.391.678.567,1.027l.024-.013.084-.048c-.209-.415-.435-.822-.683-1.215a2.8,2.8,0,0,0-.759-.866,9.49,9.49,0,0,0-2.346-1.041c-.045.019-.09.039-.135.06" transform="translate(10518.983 -3927.126)" fill="#d0d6dd"/>
    <path id="Path_177493" data-name="Path 177493" d="M140,81.843c-.009.135-4.474,11.925-6.107,11.487s-6.213,3.383-1.38-7.7c.775-1.777.525-4.1.935-4.4s6.754-2.246,6.552.617" transform="translate(10517.555 -3931.875)" fill="#ffa594"/>
    <path id="Path_177494" data-name="Path 177494" d="M138.582,86.848s3.775-6.652,1.972-9.35c-4.088-6.121-5.626-4.071-6.206-2.005-.388,1.382-.253,2.424-.834,4.941-.128.552-1.282,3.738-1.282,4.171,0,1.662,5.32,3.2,6.349,2.244" transform="translate(10517.13 -3930.315)" fill="#fff"/>
    <path id="Path_177495" data-name="Path 177495" d="M140.4,76.356a4,4,0,0,0-1.98-2.695,2.357,2.357,0,0,0-2.716.471c-.084.094.055.234.14.139a2.193,2.193,0,0,1,2.717-.315,3.965,3.965,0,0,1,1.648,2.453.1.1,0,0,0,.19-.053" transform="translate(10516.347 -3930.317)" fill="#eaeaea"/>
    <path id="Path_177496" data-name="Path 177496" d="M95.033,110.162l8.3-.111,3.615,2.054H97.168Z" transform="translate(10525.57 -3938.626)" fill="#aab4bc"/>
    <path id="Path_177497" data-name="Path 177497" d="M109.87,109.384a14.452,14.452,0,0,1,1.974-.158l4.719-3.118-1.958-.483Z" transform="translate(10522.203 -3937.622)" fill="#31425b"/>
    <path id="Path_177498" data-name="Path 177498" d="M111.09,109.777l-2.536,1.14-.271-1.392,1.777-.751Z" transform="translate(10522.563 -3938.336)" fill="#31425b"/>
    <path id="Path_177499" data-name="Path 177499" d="M118.84,105.953a.741.741,0,0,1-1.019.663l-3.647-1.267s-3.214,2.731-3.334,2.945c-.169.3-1.071.872-1.239,1.17-.08.14.16.307.249.387.2.182-.527.938-.857.743l-3.2-1.9-.253-.149c-.028-.016-.033-.155-.02-.246.005-.042.015-.073.03-.078l.587-.173.584.141,1.824-.85,1.31-.387s4.849-3.572,4.95-3.532l.416.234,3.24,1.637a.727.727,0,0,1,.365.508.649.649,0,0,1,.008.151" transform="translate(10523.191 -3937.122)" fill="#313d56"/>
    <path id="Path_177500" data-name="Path 177500" d="M118.84,105.663c0,.026,0,.05-.008.074a.738.738,0,0,1-1.011.588l-3.647-1.267s-3.123,2.57-3.242,2.783l-1.81,1.526.493.416a.114.114,0,0,1,0,.175l-.347.283a.2.2,0,0,1-.273.061l-1.659-.984-1.045-.619-.744-.441a.067.067,0,0,1-.02-.022.053.053,0,0,1,.03-.077l.587-.173.584.141,1.824-.85,1.31-.612s4.849-3.572,4.95-3.532l.416.234,3.24,1.637a.712.712,0,0,1,.373.659" transform="translate(10523.192 -3937.056)" fill="#3e4f6d"/>
    <path id="Path_177501" data-name="Path 177501" d="M111.158,107.887l-3.6,2.465-1.044-.618c.911-.452,4.116-2.036,4.173-2.046Z" transform="translate(10522.966 -3938.09)" fill="#475b77"/>
    <path id="Path_177502" data-name="Path 177502" d="M111.137,107.5s1.141.339,1.33.832c.22.576.618-.063.873-.322a.33.33,0,0,0,.04-.413,1.8,1.8,0,0,0-1.5-.785c-.528-.022-.738.688-.738.688" transform="translate(10521.917 -3937.891)" fill="#6c7687"/>
    <path id="Path_177503" data-name="Path 177503" d="M129.141,91.5s-3.76,4.33-6.4,7.548a4.755,4.755,0,0,1-3.524,1.7c.028.111,2.028,2.012,2.028,2.012a10.023,10.023,0,0,1,1.309-.328c.114.033,11.142-6.013,10.294-9.028-.646-2.3-3.7-1.9-3.7-1.9" transform="translate(10520.084 -3934.412)" fill="#ffa594"/>
    <path id="Path_177504" data-name="Path 177504" d="M122.306,104.5a18.44,18.44,0,0,1-3.157,2.2c-.41.23-.938-.066-.91-.333,0,0-.822-.1-.66-.663,0,0-.434.345-.7-.078s-.929.514-1.37.032,2.108-2.264,2.108-2.264l-.781-.342-.8-.366a.255.255,0,0,1-.147-.3c.137-.428.238.07,1.523.124a3.982,3.982,0,0,1,2.142.254c.314.089,1.268.4,1.672.56.563.227,1.079,1.174,1.079,1.174" transform="translate(10520.936 -3936.849)" fill="#ffa594"/>
    <path id="Path_177505" data-name="Path 177505" d="M121.9,62.875a1.165,1.165,0,1,1,1.165,1.165,1.165,1.165,0,0,1-1.165-1.165" transform="translate(10519.475 -3927.657)" fill="#fd3753" fill-rule="evenodd"/>
    <path id="Path_177506" data-name="Path 177506" d="M123.1,63.528a.187.187,0,0,0,.051-.133.181.181,0,0,0-.014-.07.185.185,0,0,0-.037-.059.2.2,0,0,0-.056-.042.157.157,0,0,0-.069-.015.168.168,0,0,0-.066.014.183.183,0,0,0-.056.04.2.2,0,0,0-.038.06.173.173,0,0,0-.015.071.2.2,0,0,0,.014.072.179.179,0,0,0,.038.059.19.19,0,0,0,.056.04.145.145,0,0,0,.069.015.166.166,0,0,0,.124-.053m-.228.105a.254.254,0,0,1-.085-.054.244.244,0,0,1-.057-.083.247.247,0,0,1-.021-.1.248.248,0,0,1,.078-.181.244.244,0,0,1,.085-.055.269.269,0,0,1,.1-.02.272.272,0,0,1,.1.02.268.268,0,0,1,.085.055.25.25,0,0,1,.057.081.24.24,0,0,1,.021.1.247.247,0,0,1-.021.1.256.256,0,0,1-.057.083.28.28,0,0,1-.085.054.272.272,0,0,1-.1.02.269.269,0,0,1-.1-.02m.772-.857a.19.19,0,0,0,.056-.04.223.223,0,0,0,.039-.06.185.185,0,0,0,.014-.071.184.184,0,0,0-.051-.13.174.174,0,0,0-.056-.041.147.147,0,0,0-.068-.015.165.165,0,0,0-.066.014.2.2,0,0,0-.057.039.164.164,0,0,0-.039.06.178.178,0,0,0-.015.073.181.181,0,0,0,.014.07.168.168,0,0,0,.037.059.179.179,0,0,0,.056.042.171.171,0,0,0,.137,0m.094.866-.489-.623-.5-.608.063-.054.485.621.5.608Zm-.266-.8a.252.252,0,0,1-.085-.055.276.276,0,0,1-.057-.081.242.242,0,0,1,0-.2.276.276,0,0,1,.057-.081.28.28,0,0,1,.085-.056.265.265,0,0,1,.1-.021.256.256,0,0,1,.1.021.293.293,0,0,1,.086.056.262.262,0,0,1,.057.081.26.26,0,0,1,0,.2.261.261,0,0,1-.143.136.269.269,0,0,1-.1.019.278.278,0,0,1-.1-.019" transform="translate(10519.291 -3927.801)" fill="#fff" fill-rule="evenodd"/>
  </g>
</svg>
