<svg id="Group_216026" data-name="Group 216026" xmlns="http://www.w3.org/2000/svg" xmlns:xlink="http://www.w3.org/1999/xlink" width="71.616" height="100.361" viewBox="0 0 71.616 100.361">
  <defs>
    <clipPath id="clip-path">
      <rect id="Rectangle_60094" data-name="Rectangle 60094" width="71.616" height="100.361" fill="none"/>
    </clipPath>
  </defs>
  <g id="Group_216025" data-name="Group 216025" clip-path="url(#clip-path)">
    <rect id="Rectangle_60079" data-name="Rectangle 60079" width="16.941" height="1.021" transform="translate(53.803 90.249)" fill="#efefef"/>
    <path id="Path_177034" data-name="Path 177034" d="M79.952,129.512l.87,12.644H95.328l.87-12.644Z" transform="translate(-25.801 -41.795)" fill="#efefef"/>
    <g id="Group_216024" data-name="Group 216024">
      <g id="Group_216023" data-name="Group 216023" clip-path="url(#clip-path)">
        <path id="Path_177035" data-name="Path 177035" d="M83.244,141.305a1.3,1.3,0,0,1-1.256-1.155c-.266-2.369-.88-7.888-1.109-10.533a.492.492,0,0,1,0-.1h-.931l.87,12.644H95.328l.106-.746c-4.5,0-7.551.037-12.189-.1" transform="translate(-25.801 -41.795)" fill="#e0e0e0"/>
        <path id="Path_177036" data-name="Path 177036" d="M80.087,131.465H96.064l.135-1.953H79.953Z" transform="translate(-25.802 -41.795)" fill="#cecece"/>
        <path id="Path_177037" data-name="Path 177037" d="M96.2,129.012H79.459a.262.262,0,0,0-.262.262v1.276a.262.262,0,0,0,.262.262H96.2a.262.262,0,0,0,.262-.262v-1.276a.262.262,0,0,0-.262-.262" transform="translate(-25.557 -41.633)" fill="#efefef"/>
        <path id="Path_177038" data-name="Path 177038" d="M96.421,133.723h-.456v.3h.456a.119.119,0,0,1,.119.119v3.84a.529.529,0,0,1-.479.566H78.928a.529.529,0,0,1-.479-.566v-3.84a.119.119,0,0,1,.119-.119h.456v-.3h-.456a.416.416,0,0,0-.416.416v3.84a.824.824,0,0,0,.776.863H96.061a.823.823,0,0,0,.775-.863v-3.84a.416.416,0,0,0-.415-.416" transform="translate(-25.22 -43.153)" fill="#546468"/>
        <path id="Path_177039" data-name="Path 177039" d="M37.119,42.9c.185-.832.962-1.2,1.538-.726a1.447,1.447,0,0,1,.425,1.412l-15.5,69.3c-.185.832-.962,1.2-1.538.726a1.446,1.446,0,0,1-.425-1.411Z" transform="translate(-6.966 -13.543)" fill="#c0b2a2"/>
        <rect id="Rectangle_60080" data-name="Rectangle 60080" width="1.338" height="1.611" transform="translate(14.28 98.665)" fill="#c0b2a2"/>
        <path id="Path_177040" data-name="Path 177040" d="M35.163,42.9c.185-.832.962-1.2,1.538-.726a1.447,1.447,0,0,1,.425,1.412l-15.5,69.3c-.185.832-.962,1.2-1.538.726a1.446,1.446,0,0,1-.425-1.411Z" transform="translate(-6.335 -13.543)" fill="#6b645a"/>
        <path id="Path_177041" data-name="Path 177041" d="M49.142,42.175c.577-.472,1.353-.106,1.538.726L66.1,112.277a1.447,1.447,0,0,1-.424,1.412c-.577.471-1.353.1-1.539-.726L48.717,43.587a1.448,1.448,0,0,1,.425-1.412" transform="translate(-15.709 -13.543)" fill="#c0b2a2"/>
        <rect id="Rectangle_60081" data-name="Rectangle 60081" width="1.338" height="1.611" transform="translate(48.066 98.744)" fill="#c0b2a2"/>
        <path id="Path_177042" data-name="Path 177042" d="M47.187,42.175c.577-.472,1.353-.106,1.538.726l15.419,69.376a1.447,1.447,0,0,1-.424,1.412c-.577.471-1.353.1-1.539-.726L46.762,43.587a1.448,1.448,0,0,1,.425-1.412" transform="translate(-15.078 -13.543)" fill="#6b645a"/>
        <path id="Path_177043" data-name="Path 177043" d="M61.652,125.241a.993.993,0,0,1-1.034.973c-3.3.041-6.609.01-7.2.02a1.629,1.629,0,0,1-1.149-.415c-.32-.309-.279-1.165.549-1.674,1.076-.662,1.395-.437,2.317-.869a2.326,2.326,0,0,0,1.51-1.862l3.761-.256a9.409,9.409,0,0,1,1.246,4.083" transform="translate(-16.808 -39.099)" fill="#003352"/>
        <path id="Path_177044" data-name="Path 177044" d="M76.853,27.344c-1.145,1.994-1.9,3.855-2.921,5.909-3.365-.013-6.927-.6-10.281-.413l.268,5.585a100.992,100.992,0,0,0,11.42-1.034,2.534,2.534,0,0,0,1.779-1.241c1.245-2.841,1.109-5.857,1.613-8.9Z" transform="translate(-20.541 -8.795)" fill="#aa6546"/>
        <path id="Path_177045" data-name="Path 177045" d="M75.606,38.046a1.508,1.508,0,0,1-1.375.078,1.609,1.609,0,0,1-.894-1c-.114-.284-.224-.569-.322-.858a1.3,1.3,0,0,1-.046-.662c-3.077-.1-6.282-.564-9.318-.4l.268,5.585a100.665,100.665,0,0,0,11.42-1.034,2.532,2.532,0,0,0,1.779-1.241,14.591,14.591,0,0,0,1.025-3.925,6.239,6.239,0,0,1-2.537,3.454" transform="translate(-20.541 -11.163)" fill="#94583d"/>
        <path id="Path_177046" data-name="Path 177046" d="M72.647,35.6a45.983,45.983,0,0,0-8.6-.6l.1,6.518c2.608-.181,5.782-.159,8.381-.537-.009-.117.608-3.695.124-5.379" transform="translate(-20.668 -11.284)" fill="#233c6c"/>
        <path id="Path_177047" data-name="Path 177047" d="M70.453,43.668c-.02.036-.039.072-.058.108,1.441-.065,2.88-.154,4.177-.343,0-.034.047-.364.108-.856-1.4.4-2.794.817-4.228,1.09" transform="translate(-22.717 -13.74)" fill="#003e59"/>
        <rect id="Rectangle_60082" data-name="Rectangle 60082" width="8.113" height="10.625" transform="translate(20.749 26.954)" fill="#fff"/>
        <path id="Path_177048" data-name="Path 177048" d="M37.454,43.407c0,.21.005,4.777,0,5h3.495v-5Z" transform="translate(-12.087 -14.008)" fill="#a7678b"/>
        <rect id="Rectangle_60083" data-name="Rectangle 60083" width="8.113" height="1.47" transform="translate(20.749 26.954)" fill="#e4e4e4"/>
        <path id="Path_177049" data-name="Path 177049" d="M30.05,38.344a.24.24,0,0,0,.24-.24v-.962a4.146,4.146,0,0,1,8.271,0V38.1a.24.24,0,0,0,.48,0v-.962a4.625,4.625,0,0,0-9.231,0V38.1a.24.24,0,0,0,.24.24" transform="translate(-9.62 -10.589)" fill="#fff"/>
        <rect id="Rectangle_60084" data-name="Rectangle 60084" width="8.575" height="1.138" transform="translate(20.523 26.954)" fill="#fff"/>
        <path id="Path_177050" data-name="Path 177050" d="M39.2,40.959c-.081-2.2-.689.584-1.373-1.114a.2.2,0,0,1,.181-.268H39.7a.2.2,0,0,1,.194.216c0,1.523-.643,2.61-.7,1.166" transform="translate(-12.203 -12.772)" fill="#a7678b"/>
        <rect id="Rectangle_60085" data-name="Rectangle 60085" width="1.338" height="1.611" transform="translate(29.833 28.424)" fill="#c0b2a2"/>
        <rect id="Rectangle_60086" data-name="Rectangle 60086" width="1.338" height="1.611" transform="translate(16.494 28.424)" fill="#c0b2a2"/>
        <rect id="Rectangle_60087" data-name="Rectangle 60087" width="1.338" height="1.611" transform="translate(1.024 98.665)" fill="#c0b2a2"/>
        <path id="Path_177051" data-name="Path 177051" d="M24.3,55.4H34.711a.94.94,0,0,1,1.03.807v.12a.939.939,0,0,1-1.03.807H24.3a.939.939,0,0,1-1.029-.807v-.12A.939.939,0,0,1,24.3,55.4" transform="translate(-7.511 -17.88)" fill="#6b645a"/>
        <path id="Path_177052" data-name="Path 177052" d="M8.144,128.62H18.726c.935,0,1.357.382,1.357.853v.027a.9.9,0,0,1-.942.853H8.558a.9.9,0,0,1-.942-.853v-.027a1,1,0,0,1,.528-.853" transform="translate(-2.458 -41.507)" fill="#6b645a"/>
        <path id="Path_177053" data-name="Path 177053" d="M12.1,110.538H22.509a.939.939,0,0,1,1.029.807v.12a.939.939,0,0,1-1.029.807H12.1a.939.939,0,0,1-1.029-.807v-.12a.939.939,0,0,1,1.029-.807" transform="translate(-3.573 -35.671)" fill="#6b645a"/>
        <path id="Path_177054" data-name="Path 177054" d="M16.168,92.455H26.577a.939.939,0,0,1,1.029.807v.12a.939.939,0,0,1-1.029.807H16.168a.939.939,0,0,1-1.029-.807v-.12a.939.939,0,0,1,1.029-.807" transform="translate(-4.885 -29.836)" fill="#6b645a"/>
        <path id="Path_177055" data-name="Path 177055" d="M20.235,74.372H30.644a.939.939,0,0,1,1.029.807v.12a.939.939,0,0,1-1.029.807H20.235a.939.939,0,0,1-1.029-.807v-.12a.939.939,0,0,1,1.029-.807" transform="translate(-6.198 -24)" fill="#6b645a"/>
        <path id="Path_177056" data-name="Path 177056" d="M17.488,42.9c.185-.832.962-1.2,1.538-.726a1.447,1.447,0,0,1,.425,1.412l-15.5,69.3c-.185.832-.962,1.2-1.539.726a1.447,1.447,0,0,1-.424-1.411Z" transform="translate(-0.631 -13.543)" fill="#c0b2a2"/>
        <path id="Path_177057" data-name="Path 177057" d="M15.533,42.9c.185-.832.962-1.2,1.538-.726a1.448,1.448,0,0,1,.425,1.412L2,112.883c-.185.832-.962,1.2-1.538.726A1.443,1.443,0,0,1,.038,112.2Z" transform="translate(0 -13.543)" fill="#6b645a"/>
        <path id="Path_177058" data-name="Path 177058" d="M34.313,55.4H44.722a.939.939,0,0,1,1.029.807v.12a.939.939,0,0,1-1.029.807H34.313a.939.939,0,0,1-1.029-.807v-.12a.939.939,0,0,1,1.029-.807" transform="translate(-10.741 -17.88)" fill="#c0b2a2"/>
        <path id="Path_177059" data-name="Path 177059" d="M50.583,128.62H60.992a.939.939,0,0,1,1.029.807v.12a.939.939,0,0,1-1.029.807H50.583a.939.939,0,0,1-1.029-.807v-.12a.939.939,0,0,1,1.029-.807" transform="translate(-15.991 -41.507)" fill="#c0b2a2"/>
        <path id="Path_177060" data-name="Path 177060" d="M46.515,110.538H56.924a.939.939,0,0,1,1.029.807v.12a.939.939,0,0,1-1.029.807H46.515a.939.939,0,0,1-1.029-.807v-.12a.939.939,0,0,1,1.029-.807" transform="translate(-14.679 -35.671)" fill="#c0b2a2"/>
        <path id="Path_177061" data-name="Path 177061" d="M42.448,92.455H52.857a.939.939,0,0,1,1.029.807v.12a.939.939,0,0,1-1.029.807H42.448a.939.939,0,0,1-1.029-.807v-.12a.939.939,0,0,1,1.029-.807" transform="translate(-13.366 -29.836)" fill="#c0b2a2"/>
        <path id="Path_177062" data-name="Path 177062" d="M38.381,74.372H48.79a.939.939,0,0,1,1.029.807v.12a.939.939,0,0,1-1.029.807H38.381a.939.939,0,0,1-1.029-.807v-.12a.939.939,0,0,1,1.029-.807" transform="translate(-12.054 -24)" fill="#c0b2a2"/>
        <path id="Path_177063" data-name="Path 177063" d="M29.512,42.175h0c.577-.472,1.353-.106,1.538.726l15.419,69.376a1.449,1.449,0,0,1-.424,1.412c-.577.471-1.353.1-1.539-.726L29.087,43.587a1.448,1.448,0,0,1,.425-1.412" transform="translate(-9.375 -13.543)" fill="#c0b2a2"/>
        <rect id="Rectangle_60088" data-name="Rectangle 60088" width="1.338" height="1.611" transform="translate(19.333 28.424)" fill="#c0b2a2"/>
        <rect id="Rectangle_60089" data-name="Rectangle 60089" width="1.338" height="1.611" transform="translate(34.81 98.744)" fill="#c0b2a2"/>
        <path id="Path_177064" data-name="Path 177064" d="M27.556,42.175c.577-.472,1.353-.106,1.538.726l15.419,69.376a1.447,1.447,0,0,1-.424,1.412c-.577.471-1.353.1-1.539-.726L27.131,43.587a1.448,1.448,0,0,1,.425-1.412" transform="translate(-8.743 -13.543)" fill="#6b645a"/>
        <path id="Path_177065" data-name="Path 177065" d="M52.466,28.915s-2.884-3.434-1.794-6,2.606-1.986,5.062-1.773c1.737.151,2.158,3.973,2.35,5.063s.54,3.848-.549,3.91l.093.715-5.011.187Z" transform="translate(-16.273 -6.756)" fill="#aa6546"/>
        <path id="Path_177066" data-name="Path 177066" d="M53.8,30.64a12.218,12.218,0,0,1-.785-1.726,12.6,12.6,0,0,1-.448-1.757c-.051-.232-.1-.463-.169-.692-.033-.116-.067-.23-.106-.343-.022-.064-.177-.433-.018-.083q-.107-.232-.194-.47l.073.17a1.534,1.534,0,0,0-.138-.295c-.1-.2-.205-.387-.316-.576-.3-.5-.6-.992-.873-1.494q-.077.155-.152.331c-1.09,2.564,1.794,6,1.794,6l.151,2.106,1.932-.072a7.145,7.145,0,0,1-.752-1.1" transform="translate(-16.273 -7.543)" fill="#94583d"/>
        <path id="Path_177067" data-name="Path 177067" d="M52.256,28.954a10.951,10.951,0,0,0,3.076-.4,2.8,2.8,0,0,0,.933-1.677A3.132,3.132,0,0,1,56.9,25.2a4.361,4.361,0,0,0,.31-1.335c.043-.427.8-1.061-.408-3.311a6.006,6.006,0,0,0-2.2-.448c-1.2,0-3.5.384-4.037,1.3a5.353,5.353,0,0,0-.385,3.952,12.316,12.316,0,0,0,2.072,3.588" transform="translate(-16.127 -6.49)" fill="#323842"/>
        <path id="Path_177068" data-name="Path 177068" d="M59.979,27.247s-.3-.7-.737-.144c-.352.448.1,1.635.289,1.762.9.609.448-1.618.448-1.618" transform="translate(-19.076 -8.677)" fill="#aa6546"/>
        <path id="Path_177069" data-name="Path 177069" d="M65.159,105.783c.006.244-.293.576-.789.793-1.185.518-4.759,1.868-6.953,1.669-.731-.067-2.995-.931-1.363-1.947s3.548-2.5,3.693-3.726l3.506-.31s1.863,1.837,1.906,3.521" transform="translate(-17.902 -33.001)" fill="#003352"/>
        <path id="Path_177070" data-name="Path 177070" d="M44.062,39.511a4.809,4.809,0,0,1,3.384-3.47c4.4-1.132,5.277-.595,8.947-.954,2.736-.268,5.606.172,5.819,1.485a33.505,33.505,0,0,1-.534,9.085,31.989,31.989,0,0,0-.494,6.856c.2,1.783,2.524,9.3-1.686,11.451s-9.689,1.861-10.892-.373S47.492,54.7,47.58,52.715c.326-7.4-4.033-9.853-3.518-13.2" transform="translate(-14.205 -11.299)" fill="#2e497c"/>
        <path id="Path_177071" data-name="Path 177071" d="M57.394,58.295a9.44,9.44,0,0,1-5.452-2.639c-1.411-1.5-1.947-3.51-3.053-5.208-.116-.177-.238-.349-.362-.521-.022-.028-.044-.059-.066-.085q-.106-.129-.217-.253a7.4,7.4,0,0,0-.522-.53c-.064-.058-.129-.114-.2-.17-.15-.1-.166-.119-.138-.1a5.454,5.454,0,0,0-.483-.3c-.1-.054-.2-.1-.3-.151h0l-.018-.007a5.235,5.235,0,0,0-.534-.167,15.927,15.927,0,0,1,2.178,8.8c-.087,1.982-.177,8.643,1.025,10.877s6.682,2.52,10.892.373c3.29-1.678,2.589-6.636,2.031-9.575a30.72,30.72,0,0,1-4.792-.337" transform="translate(-14.864 -15.541)" fill="#233c6c"/>
        <path id="Path_177072" data-name="Path 177072" d="M65.581,74.168l-7.4-2.237L55.9,81.842l-.274,1.189.289.7,4.317,10.793,3.693-1.49-1.669-10.04Z" transform="translate(-17.95 -23.213)" fill="#fff"/>
        <path id="Path_177073" data-name="Path 177073" d="M65.581,74.168l-7.4-2.237L55.9,81.842l-.274,1.189.289.7,4.317,10.793,3.693-1.49-1.669-10.04Z" transform="translate(-17.95 -23.213)" fill="#eaeaea"/>
        <path id="Path_177074" data-name="Path 177074" d="M84.992,13.413l-.61-.14.462-2.021a1.2,1.2,0,0,1,1.05-.925l7.632-.755.646-2.829L79.553,3.4l.139-.61L94.38,6.148a.557.557,0,0,1,.418.666L94.124,9.76a.553.553,0,0,1-.486.429l-7.682.761a.572.572,0,0,0-.5.442Z" transform="translate(-25.672 -0.901)" fill="#233c6c"/>
        <path id="Path_177075" data-name="Path 177075" d="M85.045,24.531l-1.213-.277a.509.509,0,0,1-.383-.61l1.537-6.727a.508.508,0,0,1,.61-.383l1.213.277a.508.508,0,0,1,.383.61l-1.537,6.727a.509.509,0,0,1-.61.383" transform="translate(-26.926 -5.332)" fill="#ed1519"/>
        <path id="Path_177076" data-name="Path 177076" d="M91.586,7.373,80.811,4.911a1.127,1.127,0,0,1-.847-1.35L80.577.876A1.126,1.126,0,0,1,81.926.028L92.7,2.49a1.126,1.126,0,0,1,.847,1.349l-.614,2.686a1.126,1.126,0,0,1-1.349.847" transform="translate(-25.796 0)" fill="#fff"/>
        <path id="Path_177077" data-name="Path 177077" d="M92.752,6.559a21.781,21.781,0,0,1,.49-3.9L84.164.58c-.372.548-.718,1.115-1.034,1.7q-.264.488-.5.989c-.024.052-.051.129-.08.206.029-.02-.01.123-.12.242-.193.49-.362.987-.511,1.491l10.808,2.47c0-.372.007-.744.026-1.116" transform="translate(-26.436 -0.187)" fill="#2e497c"/>
        <path id="Path_177078" data-name="Path 177078" d="M82.748,23.361a3.762,3.762,0,0,1,1.139-.917l-.173.772a4.331,4.331,0,0,0,1.218.321,1.2,1.2,0,0,0,1.076-.38l.084-.351s.673-.515.89.89a3.057,3.057,0,0,1-.91,2.237,17.866,17.866,0,0,1-1.583.91l-1.87-.46s-.373-2.493.129-3.023" transform="translate(-26.619 -7.243)" fill="#6f8084"/>
        <path id="Path_177079" data-name="Path 177079" d="M64.02,60.609c.633-2.848-.3-5.669-.869-8.13-.186-.807-1.934-2.509-2.172-5.275C60.255,38.783,59.252,35,59.21,34.914a8.528,8.528,0,0,0-1.74.119c.168,3.846-.136,7.773-.392,7.35a49.5,49.5,0,0,0-5.334-6.994,9.388,9.388,0,0,0-1.812.332A37.265,37.265,0,0,1,53.9,44.782c.6,2.391.62,7.261-4.965,9-.02.007-.021.054,0,.135-.586,2.692.146,8.617.146,8.617l.16,1.072q.162,1.07.333,2.135.342,2.131.722,4.256c.253,1.417.515,2.832.8,4.246.068.354.142.707.213,1.06l.216,1.053.434,2.082,3,16.082s1.378.1,2.576.062A10.616,10.616,0,0,0,59.8,94.21L58.282,74.688s1.207-6.2,2.092-9.254c.182-.63,2.173-1.288,3.531-4.372a1.949,1.949,0,0,0,.1-.37c.007-.028.014-.056.02-.084" transform="translate(-15.718 -11.264)" fill="#fff"/>
        <path id="Path_177080" data-name="Path 177080" d="M55.2,95.9a32.726,32.726,0,0,1-.344-3.352c-.029-.631-.018-1.258,0-1.886v-.007c-.33-1.212-.741-2.4-1.084-3.609a19.1,19.1,0,0,1-.69-3.628c-.045-.552-.034-1.1-.082-1.656v0c-.013-.066-.024-.133-.037-.2q-.034-.171-.075-.341c-.058-.238-.126-.475-.2-.708-.316-.988-.752-1.936-1.025-2.939a22.548,22.548,0,0,1-.464-3.726,56.082,56.082,0,0,0-1.143-6.876c-.146-.405-.99-3.546-.779-3.888,0-.012,0-.024,0-.036a2.592,2.592,0,0,1,0-.441c-.114.04-.229.079-.347.115a.876.876,0,0,0-.059.219c-.586,2.692.2,8.534.2,8.534l.16,1.072q.162,1.071.333,2.135.342,2.132.722,4.256c.253,1.417.515,2.832.8,4.246.068.354.142.707.213,1.061L51.5,85.3l.434,2.082,3,16.082s1.234.086,2.382.066q-.322-.813-.61-1.637A33.061,33.061,0,0,1,55.2,95.9" transform="translate(-15.697 -20.203)" fill="#eaeaea"/>
        <path id="Path_177081" data-name="Path 177081" d="M36.012,55.733a1.681,1.681,0,0,1-1.086-1.257c-.1-.558.461-1.035.807-1.22,2.813-1.51,3.186.269,3.5.455s-.455,2.048-.455,2.048.093.388-2.762-.026" transform="translate(-11.267 -16.991)" fill="#233c6c"/>
        <path id="Path_177082" data-name="Path 177082" d="M41.068,45.954c-.638,2.108-1.334,4.7-1.954,6.985l-1.265-.748a1.439,1.439,0,0,0-1.573.827s1.37,3.886,2.95,5.028c.693.672,1.783.532,2.967-1.014,1.49-1.945,2.871-6.865,3.831-9.957-1.655-.359-3.307-.737-4.956-1.12" transform="translate(-11.707 -14.83)" fill="#aa6546"/>
        <path id="Path_177083" data-name="Path 177083" d="M41.461,45.954c-.159.527-.322,1.084-.487,1.658a1.587,1.587,0,0,1,.841.419c.394.361-1.192,1.087-1.342,1.628.494.375,2.416,1.7,2.217,2.289a13.167,13.167,0,0,1-.752,1.848,3.047,3.047,0,0,1-2.532,1.844,2.6,2.6,0,0,1-1.913-.66,8.664,8.664,0,0,0,2.125,3.063c.693.672,1.783.532,2.967-1.014,1.49-1.945,2.871-6.865,3.831-9.957-1.655-.359-3.307-.737-4.956-1.12" transform="translate(-12.099 -14.83)" fill="#94583d"/>
        <path id="Path_177084" data-name="Path 177084" d="M38.853,55.528l-.922-.914s-1.586.022-1.958,1.046c0,0,.333.73.77,1.544a1.86,1.86,0,0,1,2.11-1.676" transform="translate(-11.608 -17.624)" fill="#233c6c"/>
        <path id="Path_177085" data-name="Path 177085" d="M81.569,29.086s2.051-.077,2.878.9l.673-2.154-2.668-.518Z" transform="translate(-26.323 -8.813)" fill="#6f8084"/>
        <path id="Path_177086" data-name="Path 177086" d="M57.457,19.422s.31-.121.6-.228a2.36,2.36,0,0,1,2.14-.083c.664.379,1.292.888.969,1.827A9.664,9.664,0,0,1,59.177,24s-1.337-4.261-1.72-4.575" transform="translate(-18.542 -6.091)" fill="#233c6c"/>
        <path id="Path_177087" data-name="Path 177087" d="M50.194,25.991s4.435.442,6.774-2.649c0,0,1.212-1.9.112-3.114s-2.344-2.076-4.259-1.638c-1.089.249-3.718,1.808-3.6,4.083a8.676,8.676,0,0,0,.969,3.317" transform="translate(-15.884 -5.962)" fill="#2e497c"/>
        <path id="Path_177088" data-name="Path 177088" d="M50.248,22.827a7.12,7.12,0,0,1,1.517-3.542c-1.189.654-2.631,1.952-2.541,3.651a8.689,8.689,0,0,0,.969,3.317,8.13,8.13,0,0,0,1.117.007,4.393,4.393,0,0,1-1.063-3.432" transform="translate(-15.884 -6.223)" fill="#233c6c"/>
        <path id="Path_177089" data-name="Path 177089" d="M46.022,49.539l.759.236c.8-2.347,1.528-4.648,2.3-7.328L43.356,40.56c-.794,2.413-1.736,4.89-2.254,7.128.023.019,4.392,1.687,4.92,1.851" transform="translate(-13.264 -13.089)" fill="#2e497c"/>
        <rect id="Rectangle_60090" data-name="Rectangle 60090" width="1.377" height="2.213" transform="translate(20.352 27.417)" fill="#c0b2a2"/>
        <rect id="Rectangle_60091" data-name="Rectangle 60091" width="4.954" height="2.213" transform="translate(15.457 27.417)" fill="#6b645a"/>
        <path id="Path_177090" data-name="Path 177090" d="M58.76,52.5A1.723,1.723,0,0,1,60.5,50.427,2.517,2.517,0,0,1,62.9,52.5a1.722,1.722,0,0,1-1.741,2.069,2.519,2.519,0,0,1-2.4-2.069" transform="translate(-18.954 -16.273)" fill="#fc3753" fill-rule="evenodd"/>
        <path id="Path_177091" data-name="Path 177091" d="M61.2,53.816a.291.291,0,0,0,.053-.236.378.378,0,0,0-.043-.125.445.445,0,0,0-.083-.1.435.435,0,0,0-.11-.073.31.31,0,0,0-.127-.027.259.259,0,0,0-.113.026.235.235,0,0,0-.089.072.3.3,0,0,0-.052.106.3.3,0,0,0,0,.127.375.375,0,0,0,.044.127.383.383,0,0,0,.083.1.412.412,0,0,0,.11.071A.3.3,0,0,0,61,53.91a.251.251,0,0,0,.206-.095M60.828,54a.583.583,0,0,1-.166-.1.565.565,0,0,1-.125-.146.5.5,0,0,1-.065-.179.418.418,0,0,1,.009-.177.364.364,0,0,1,.079-.145.393.393,0,0,1,.135-.1.448.448,0,0,1,.179-.035.529.529,0,0,1,.19.035.6.6,0,0,1,.167.1.555.555,0,0,1,.125.145.492.492,0,0,1,.065.177.428.428,0,0,1-.009.179.355.355,0,0,1-.078.146.387.387,0,0,1-.136.1.437.437,0,0,1-.179.035.52.52,0,0,1-.19-.035m1.13-1.522a.251.251,0,0,0,.087-.071.3.3,0,0,0,.057-.234.376.376,0,0,0-.043-.126.441.441,0,0,0-.083-.1.4.4,0,0,0-.112-.073.3.3,0,0,0-.125-.027.263.263,0,0,0-.114.025.269.269,0,0,0-.09.07.263.263,0,0,0-.054.1.312.312,0,0,0,0,.131.378.378,0,0,0,.043.125.419.419,0,0,0,.2.178.325.325,0,0,0,.129.027.259.259,0,0,0,.115-.026m.41,1.538-1.042-1.106-1.055-1.08.1-.1,1.036,1.1,1.061,1.08Zm-.7-1.424a.568.568,0,0,1-.167-.1.6.6,0,0,1-.124-.144.463.463,0,0,1-.066-.178A.4.4,0,0,1,61.324,52a.394.394,0,0,1,.079-.144.385.385,0,0,1,.135-.1.437.437,0,0,1,.18-.037.509.509,0,0,1,.19.037.626.626,0,0,1,.167.1A.563.563,0,0,1,62.2,52a.478.478,0,0,1,.064.178.411.411,0,0,1-.008.178.366.366,0,0,1-.079.144.391.391,0,0,1-.135.1.448.448,0,0,1-.179.035.549.549,0,0,1-.192-.035" transform="translate(-19.45 -16.69)" fill="#fff" fill-rule="evenodd"/>
        <path id="Path_177092" data-name="Path 177092" d="M57.788,58.575l.087.552h-.167l-.137-.862h.13l.538.566-.089-.564h.167l.137.86h-.136Z" transform="translate(-18.579 -18.803)" fill="#222" fill-rule="evenodd"/>
        <path id="Path_177093" data-name="Path 177093" d="M59.132,58.693a.417.417,0,0,0,.033.108.38.38,0,0,0,.062.092.308.308,0,0,0,.086.064.242.242,0,0,0,.106.024.189.189,0,0,0,.1-.024.187.187,0,0,0,.064-.066.26.26,0,0,0,.032-.093.342.342,0,0,0,0-.1.362.362,0,0,0-.034-.108.39.39,0,0,0-.062-.093.312.312,0,0,0-.085-.064.238.238,0,0,0-.1-.024.187.187,0,0,0-.1.025.2.2,0,0,0-.065.066.24.24,0,0,0-.032.092.341.341,0,0,0,0,.1m.308.437a.4.4,0,0,1-.172-.037.5.5,0,0,1-.145-.1.535.535,0,0,1-.1-.14.517.517,0,0,1-.055-.161.435.435,0,0,1,0-.165.371.371,0,0,1,.064-.14.326.326,0,0,1,.115-.1.341.341,0,0,1,.158-.036.4.4,0,0,1,.172.039.511.511,0,0,1,.145.1.559.559,0,0,1,.1.141.525.525,0,0,1,.055.161.428.428,0,0,1,0,.164.389.389,0,0,1-.064.139.33.33,0,0,1-.115.1.341.341,0,0,1-.158.036" transform="translate(-19.026 -18.8)" fill="#222" fill-rule="evenodd"/>
        <path id="Path_177094" data-name="Path 177094" d="M60.933,58.886a.178.178,0,0,0-.019-.056.21.21,0,0,0-.035-.048.174.174,0,0,0-.047-.033.13.13,0,0,0-.056-.012h-.308l.047.3h.3a.116.116,0,0,0,.054-.012.14.14,0,0,0,.04-.032.125.125,0,0,0,.022-.047.13.13,0,0,0,0-.056m-.525-.525.046.287h.274a.107.107,0,0,0,.051-.012.1.1,0,0,0,.037-.03.12.12,0,0,0,.021-.046.135.135,0,0,0,0-.055.2.2,0,0,0-.018-.057.184.184,0,0,0-.034-.046.146.146,0,0,0-.045-.03.129.129,0,0,0-.052-.011Zm.639.545a.192.192,0,0,1-.005.091.174.174,0,0,1-.043.07.212.212,0,0,1-.073.045.285.285,0,0,1-.1.016h-.408l-.137-.862h.429a.18.18,0,0,1,.084.02.244.244,0,0,1,.07.05.279.279,0,0,1,.051.07.26.26,0,0,1,.026.079.208.208,0,0,1-.014.119.156.156,0,0,1-.079.081.269.269,0,0,1,.2.219" transform="translate(-19.454 -18.803)" fill="#424242" fill-rule="evenodd"/>
        <path id="Path_177095" data-name="Path 177095" d="M61.67,58.72h.261a.109.109,0,0,0,.059-.015.108.108,0,0,0,.041-.039.154.154,0,0,0,.021-.058.206.206,0,0,0,0-.068.216.216,0,0,0-.024-.068.262.262,0,0,0-.043-.058.2.2,0,0,0-.056-.039.147.147,0,0,0-.062-.014h-.254Zm-.045.406-.136-.862h.368a.263.263,0,0,1,.109.024.318.318,0,0,1,.092.063.393.393,0,0,1,.068.089.317.317,0,0,1,.035.1.287.287,0,0,1,0,.087.232.232,0,0,1-.024.076.2.2,0,0,1-.047.058.186.186,0,0,1-.069.035l.261.33h-.124l-.245-.31h-.228l.049.31Z" transform="translate(-19.843 -18.803)" fill="#424242" fill-rule="evenodd"/>
        <path id="Path_177096" data-name="Path 177096" d="M62.807,58.693a.426.426,0,0,0,.041.127.437.437,0,0,0,.078.109.372.372,0,0,0,.1.075.3.3,0,0,0,.126.028.225.225,0,0,0,.2-.108.276.276,0,0,0,.041-.108.372.372,0,0,0,0-.123.435.435,0,0,0-.119-.235.39.39,0,0,0-.1-.075.291.291,0,0,0-.124-.028.23.23,0,0,0-.119.029.236.236,0,0,0-.081.077.284.284,0,0,0-.042.108.362.362,0,0,0,0,.124m.364.437A.4.4,0,0,1,63,59.092a.5.5,0,0,1-.144-.1.551.551,0,0,1-.1-.14.517.517,0,0,1-.055-.161.422.422,0,0,1,.005-.165.38.38,0,0,1,.063-.14.328.328,0,0,1,.27-.132.39.39,0,0,1,.171.039.511.511,0,0,1,.143.1.558.558,0,0,1,.1.14.5.5,0,0,1,.054.16.422.422,0,0,1,0,.165.376.376,0,0,1-.063.139.323.323,0,0,1-.113.1.337.337,0,0,1-.156.036" transform="translate(-20.231 -18.8)" fill="#424242" fill-rule="evenodd"/>
        <path id="Path_177097" data-name="Path 177097" d="M64.16,59.127l-.136-.86h.109l.075.475.368-.477h.118l-.286.38.442.482h-.119l-.379-.419-.125.155.041.263Z" transform="translate(-20.661 -18.803)" fill="#424242" fill-rule="evenodd"/>
        <path id="Path_177098" data-name="Path 177098" d="M65.892,59.03l.016.1h-.585l-.136-.862h.574l.016.1h-.465l.044.279h.4l.015.091h-.4l.047.3Z" transform="translate(-21.036 -18.803)" fill="#424242" fill-rule="evenodd"/>
        <path id="Path_177099" data-name="Path 177099" d="M66.46,58.72h.261a.109.109,0,0,0,.059-.015.108.108,0,0,0,.041-.039.154.154,0,0,0,.021-.058.206.206,0,0,0,0-.068.216.216,0,0,0-.024-.068.262.262,0,0,0-.043-.058.2.2,0,0,0-.056-.039.147.147,0,0,0-.062-.014H66.4Zm-.045.406-.136-.862h.368a.263.263,0,0,1,.109.024.318.318,0,0,1,.092.063.393.393,0,0,1,.068.089.317.317,0,0,1,.035.1.286.286,0,0,1,0,.087.232.232,0,0,1-.024.076.2.2,0,0,1-.047.058.186.186,0,0,1-.069.035l.261.33h-.124l-.245-.31h-.228l.049.31Z" transform="translate(-21.389 -18.803)" fill="#424242" fill-rule="evenodd"/>
      </g>
    </g>
  </g>
</svg>
