<?xml version="1.0" encoding="UTF-8"?><svg id="Layer_2" xmlns="http://www.w3.org/2000/svg" xmlns:xlink="http://www.w3.org/1999/xlink" viewBox="0 0 59.92 59.92"><defs><clipPath id="clippath"><rect width="59.92" height="59.92" fill="none"/></clipPath><linearGradient id="linear-gradient" x1="52.83" y1="33.68" x2="52.83" y2="33.68" gradientUnits="userSpaceOnUse"><stop offset="0" stop-color="#ffd008"/><stop offset="1" stop-color="#ffc14e"/></linearGradient></defs><g id="Layer_1-2"><g clip-path="url(#clippath)"><g><circle cx="39.3" cy="30.38" r="20.33" fill="#e9eaeb"/><g><path d="M8.37,35.42c0-1.4-1.2-2.53-2.69-2.53h-1.95c-1.48,0-2.68,1.14-2.68,2.54h0c0,1.4,1.2,2.54,2.69,2.54h1.95c1.48,0,2.68-1.14,2.68-2.54h0Z" fill="#fd3753" stroke="#3240a0" stroke-miterlimit="10" stroke-width="1.5"/><polygon points="52.83 33.68 52.83 33.68 52.83 33.68 52.83 33.68" fill="url(#linear-gradient)"/><path d="M54.23,30.4c0-9.27-7.56-16.97-17.34-17.67-.43-.03-.85-.05-1.28-.05-.14-.02-.28-.04-.42-.04H16.62c-1.48,0-2.68,1.14-2.68,2.54h0c0,1.4,1.2,2.54,2.69,2.54h6.11c.64,.08,1.23,.36,1.65,.82,.44,.47,.68,1.07,.68,1.69,0,1.31-1.07,2.38-2.42,2.51H12.53c-1.48,0-2.68,1.14-2.68,2.54h0c0,1.4,1.2,2.54,2.69,2.54h4.39s0,0,0,.01h.19c1.08,0,2.05,.61,2.47,1.55,.14,.31,.22,.65,.21,.99,0,.35-.07,.69-.21,1.01-.14,.29-.33,.56-.57,.79-.5,.48-1.19,.74-1.9,.74h-.21s-2.73,0-2.73,0h0c-1.48,0-2.68,1.14-2.68,2.54h0c0,1.4,1.2,2.54,2.69,2.54h7.52c1.48,0,2.68,1.14,2.68,2.54,0,.47-.13,.93-.39,1.33-.11,.17-.24,.33-.39,.47-.36,.34-.82,.58-1.32,.68H12.02c-1.5,0-2.72,1.15-2.72,2.57s1.22,2.57,2.72,2.57h24.64c.27,0,.53-.05,.78-.12,9.52-.94,16.8-8.51,16.8-17.6h-.01Z" fill="none" stroke="#3240a0" stroke-miterlimit="10" stroke-width="1.5"/><circle cx="37.5" cy="30.38" r="12.73" fill="#fd3753" stroke="#3240a0" stroke-miterlimit="10" stroke-width="1.5"/><g id="Group_215715"><path id="Path_181320" d="M43.25,23.17c-.26,.68-.56,1.32-.85,1.98-.22,.52-.44,1.02-.66,1.54-.23,.55-.44,1.1-.71,1.64-.09,.19-.06,.21,.14,.27,.49,.12,.95,.25,1.44,.38,.28,.07,.55,.16,.83,.23,.39,.08,.69,.38,.76,.77,.08,.38-.08,.77-.4,.98-.83,.66-1.61,1.35-2.46,1.98-.95,.7-1.83,1.5-2.76,2.23-1.49,1.17-2.97,2.35-4.45,3.53-.17,.16-.37,.26-.6,.31-.53,.05-1-.34-1.05-.87-.01-.14,0-.28,.05-.41,.23-.61,.49-1.2,.74-1.8,.22-.52,.45-1.03,.67-1.55,.28-.64,.55-1.29,.84-1.93,.07-.15,.02-.19-.12-.24-.49-.12-.95-.25-1.44-.38-.3-.09-.61-.18-.92-.27-.52-.14-.82-.67-.68-1.19,.05-.2,.17-.38,.34-.51,.85-.67,1.69-1.35,2.54-2.02,2.37-1.89,4.73-3.78,7.09-5.67,.19-.18,.42-.31,.67-.39,.52-.07,1.01,.29,1.08,.82,.02,.14,0,.29-.03,.42,0,.04-.02,.08-.04,.11h-.02s0,0,0,0Z" fill="#fff" stroke="#3240a0" stroke-miterlimit="10" stroke-width="1.5"/></g><path id="Path_181322" d="M36.35,29.01h.94c.33,0,.63,.2,.75,.51h-1.7v.63h1.71c-.13,.31-.42,.51-.75,.51h-.95v.81l1.55,1.56h.94l-1.68-1.71h.16c.7,0,1.31-.49,1.45-1.18h.65v-.63h-.65c-.04-.19-.12-.38-.24-.54h.88v-.63h-3.05v.68Z" fill="#3240a0" stroke="#3240a0" stroke-miterlimit="10" stroke-width=".1"/></g></g></g></g></svg>