<svg xmlns="http://www.w3.org/2000/svg" width="39.988" height="34.198" viewBox="0 0 39.988 34.198">
  <g id="Group_48" data-name="Group 48" transform="translate(0.55)">
    <circle id="Ellipse_12" data-name="Ellipse 12" cx="17.099" cy="17.099" r="17.099" transform="translate(3.251)" fill="#e9eaeb"/>
    <g id="Group_581" data-name="Group 581">
      <g id="Group_580" data-name="Group 580" transform="translate(-469.175 -132.65)">
        <g id="Group_577" data-name="Group 577" transform="translate(469.435 134.65)">
          <path id="Path_3038" data-name="Path 3038" d="M478.612,160.2l-.919.335a2.547,2.547,0,0,1-3.262-1.465L469.58,145.74a2.565,2.565,0,0,1,1.55-3.239l21.168-7.7a2.46,2.46,0,0,1,3.154,1.527c.473,1.3,4.771,11.849,4.771,11.849l-19.8,12.026" transform="translate(-469.435 -134.65)" fill="#fff" stroke="#3240a0" stroke-miterlimit="10" stroke-width="1.6"/>
          <path id="Path_3037" data-name="Path 3037" d="M507.526,147.86a2.478,2.478,0,0,1,2.441,2.514v14.162a2.478,2.478,0,0,1-2.441,2.513h-22.65a2.478,2.478,0,0,1-2.441-2.513V150.374a2.478,2.478,0,0,1,2.441-2.514h10.5" transform="translate(-471.589 -136.838)" fill="#fff" stroke="#3240a0" stroke-miterlimit="10" stroke-width="1.6"/>
          <line id="Line_82" data-name="Line 82" x1="27.532" transform="translate(10.846 15.193)" fill="none" stroke="#3240a0" stroke-miterlimit="10" stroke-width="1.6"/>
          <line id="Line_83" data-name="Line 83" x1="27.532" transform="translate(10.846 19.365)" fill="none" stroke="#3240a0" stroke-miterlimit="10" stroke-width="1.6"/>
          <line id="Line_84" data-name="Line 84" x2="5.84" transform="translate(13.349 22.702)" fill="none" stroke="#3240a0" stroke-miterlimit="10" stroke-width="1.6"/>
        </g>
        <path id="Path_3039" data-name="Path 3039" d="M503.982,134.79l1.749,3.665,3.674.468-2.593,3.021.522,3.665-3.351-1.509-3.352,1.508.522-3.665-2.593-3.021,3.674-.467Z" transform="translate(-4.826 0.977)" fill="#fd3753" stroke="#3240a0" stroke-miterlimit="10" stroke-width="1.6"/>
      </g>
    </g>
  </g>
</svg>
