<svg xmlns="http://www.w3.org/2000/svg" viewBox="0 0 37.5 32.871">
  <defs>
    <style>
      .cls-1 {
        fill: #e9eaeb;
      }

      .cls-2 {
        fill: none;
        stroke: #3240a0;
        stroke-miterlimit: 10;
        stroke-width: 1.5px;
      }

      .cls-3, .cls-6 {
        fill: #fff;
      }

      .cls-4 {
        fill: #fd3753;
      }

      .cls-4, .cls-5, .cls-6 {
        fill-rule: evenodd;
      }

      .cls-5 {
        fill: #d31831;
      }
    </style>
  </defs>
  <g id="Group_62" data-name="Group 62" transform="translate(-89.25 -673.083)">
    <g id="Group_56" data-name="Group 56" transform="translate(90 674)">
      <circle id="Ellipse_14" data-name="Ellipse 14" class="cls-1" cx="10.536" cy="10.536" r="10.536" transform="translate(2.95 15.511) rotate(-45)"/>
      <g id="Group_52" data-name="Group 52" transform="translate(22.829 0)">
        <path id="Path_2952" data-name="Path 2952" class="cls-2" d="M44.39,10.7A14.025,14.025,0,0,1,40,33.82" transform="translate(-40 -5.14)"/>
        <path id="Path_2953" data-name="Path 2953" class="cls-2" d="M52.5,37.363c2.224.351,4.741-.176,5.443-4.507C55.192,32.446,52.968,34.085,52.5,37.363Z" transform="translate(-45.184 -14.302)"/>
        <path id="Path_2954" data-name="Path 2954" class="cls-2" d="M44.9,46.516c1.756,1.346,4.273,2.107,6.907-1.4C49.641,43.472,46.89,43.882,44.9,46.516Z" transform="translate(-42.032 -19.006)"/>
        <path id="Path_2955" data-name="Path 2955" class="cls-2" d="M55.368,25.436c2.224-.234,4.565-1.4,4.1-5.736C56.714,19.993,55.016,22.158,55.368,25.436Z" transform="translate(-46.354 -8.872)"/>
        <path id="Path_2956" data-name="Path 2956" class="cls-2" d="M52.991,14.765C54.864,13.595,56.5,11.546,54.22,7.8,51.879,9.263,51.235,11.956,52.991,14.765Z" transform="translate(-44.972 -3.937)"/>
        <path id="Path_2957" data-name="Path 2957" class="cls-2" d="M45.4,7.053c.527-2.166.293-4.741-3.922-5.853C40.775,3.892,42.238,6.234,45.4,7.053Z" transform="translate(-40.541 -1.2)"/>
      </g>
      <g id="Group_53" data-name="Group 53" transform="translate(0 0)">
        <path id="Path_2958" data-name="Path 2958" class="cls-2" d="M12.931,10.7a14.025,14.025,0,0,0,4.39,23.12" transform="translate(-4.15 -5.14)"/>
        <path id="Path_2959" data-name="Path 2959" class="cls-2" d="M7.143,37.363c-2.224.351-4.741-.176-5.443-4.507C4.451,32.446,6.675,34.085,7.143,37.363Z" transform="translate(-1.288 -14.302)"/>
        <path id="Path_2960" data-name="Path 2960" class="cls-2" d="M13.707,46.516c-1.756,1.346-4.273,2.107-6.907-1.4C9.024,43.472,11.717,43.882,13.707,46.516Z" transform="translate(-3.403 -19.006)"/>
        <path id="Path_2961" data-name="Path 2961" class="cls-2" d="M5.154,25.436C2.93,25.2.589,24.031,1.057,19.7,3.808,19.993,5.506,22.158,5.154,25.436Z" transform="translate(-0.997 -8.872)"/>
        <path id="Path_2962" data-name="Path 2962" class="cls-2" d="M8.24,14.765C6.367,13.595,4.728,11.546,7.011,7.8,9.294,9.263,9.937,11.956,8.24,14.765Z" transform="translate(-3.029 -3.937)"/>
        <path id="Path_2963" data-name="Path 2963" class="cls-2" d="M15.056,7.053c-.527-2.166-.293-4.741,3.922-5.853C19.68,3.892,18.216,6.234,15.056,7.053Z" transform="translate(-6.743 -1.2)"/>
      </g>
      <g id="Group_55" data-name="Group 55" transform="translate(16.098 21.949)">
        <path id="Path_2964" data-name="Path 2964" class="cls-3" d="M28.5,38.7v8.194l1.756-1.756,1.756,1.756V38.7Z" transform="translate(-28.5 -38.7)"/>
        <path id="Path_2965" data-name="Path 2965" class="cls-2" d="M32.012,38.7v8.194l-1.756-1.756L28.5,46.894V38.7" transform="translate(-28.5 -38.7)"/>
      </g>
    </g>
    <g id="Group_57" data-name="Group 57" transform="translate(100.08 685)">
      <path id="Fill-44" class="cls-4" d="M133.883,226.718a7.486,7.486,0,1,1,7.486,7.486,7.486,7.486,0,0,1-7.486-7.486" transform="translate(-133.809 -219.158)"/>
      <path id="Fill-45" class="cls-5" d="M140.943,218.881a7.412,7.412,0,1,0,7.412,7.412,7.42,7.42,0,0,0-7.412-7.412m0,14.972a7.56,7.56,0,1,1,7.56-7.56,7.568,7.568,0,0,1-7.56,7.56" transform="translate(-133.383 -218.732)"/>
      <path id="Fill-46" class="cls-6" d="M163.484,248.17a1.258,1.258,0,0,0,.241-1.3,1.233,1.233,0,0,0-.241-.379,1.2,1.2,0,0,0-.356-.264,1,1,0,0,0-.443-.1,1.041,1.041,0,0,0-.425.092,1.1,1.1,0,0,0-.362.259,1.305,1.305,0,0,0-.247.385,1.174,1.174,0,0,0-.092.46,1.241,1.241,0,0,0,.086.46,1.143,1.143,0,0,0,.241.379,1.241,1.241,0,0,0,.356.258,1,1,0,0,0,.442.1A1.06,1.06,0,0,0,163.484,248.17Zm-1.466.678a1.724,1.724,0,0,1-.546-.351,1.6,1.6,0,0,1-.368-.528,1.618,1.618,0,0,1-.132-.65,1.576,1.576,0,0,1,.132-.644,1.614,1.614,0,0,1,.368-.523,1.731,1.731,0,0,1,.546-.351,1.821,1.821,0,0,1,1.333,0,1.733,1.733,0,0,1,.546.351,1.607,1.607,0,0,1,.368.523,1.572,1.572,0,0,1,.132.644,1.614,1.614,0,0,1-.132.65,1.593,1.593,0,0,1-.368.528,1.726,1.726,0,0,1-.546.351,1.823,1.823,0,0,1-1.333,0Zm4.96-5.506a1.119,1.119,0,0,0,.356-.259,1.291,1.291,0,0,0,.247-.385,1.167,1.167,0,0,0,.092-.46,1.2,1.2,0,0,0-.086-.454,1.23,1.23,0,0,0-.241-.379,1.178,1.178,0,0,0-.362-.264,1.012,1.012,0,0,0-.437-.1,1.036,1.036,0,0,0-.425.092,1.219,1.219,0,0,0-.368.253,1.179,1.179,0,0,0-.253.38,1.245,1.245,0,0,0-.006.925,1.231,1.231,0,0,0,.241.38,1.175,1.175,0,0,0,.362.264,1.038,1.038,0,0,0,.448.1A1.024,1.024,0,0,0,166.978,243.342Zm.6,5.563-3.138-4-3.2-3.908.4-.345,3.115,3.988,3.218,3.908Zm-1.707-5.149a1.65,1.65,0,0,1-.546-.35,1.745,1.745,0,0,1-.368-.523,1.571,1.571,0,0,1,0-1.287,1.709,1.709,0,0,1,.914-.879,1.727,1.727,0,0,1,.672-.132,1.685,1.685,0,0,1,.667.132,1.826,1.826,0,0,1,.546.356,1.62,1.62,0,0,1,.368.523,1.633,1.633,0,0,1,0,1.287,1.616,1.616,0,0,1-.368.523,1.742,1.742,0,0,1-1.213.477A1.789,1.789,0,0,1,165.875,243.756Z" transform="translate(-156.884 -237.345)"/>
    </g>
  </g>
</svg>
