<svg xmlns="http://www.w3.org/2000/svg" viewBox="0 0 37.061 34.198">
  <defs>
    <style>
      .cls-1, .cls-3 {
        fill: #e9eaeb;
      }

      .cls-2, .cls-6 {
        fill: #fff;
      }

      .cls-2, .cls-3, .cls-5, .cls-7 {
        stroke: #3240a0;
      }

      .cls-2, .cls-3, .cls-4, .cls-5, .cls-7 {
        stroke-miterlimit: 10;
        stroke-width: 1.5px;
      }

      .cls-4, .cls-7 {
        fill: none;
      }

      .cls-4 {
        stroke: #fd3753;
      }

      .cls-5 {
        fill: #fd3753;
      }
    </style>
  </defs>
  <g id="Group_48" data-name="Group 48" transform="translate(-0.388)">
    <circle id="Ellipse_12" data-name="Ellipse 12" class="cls-1" cx="17.099" cy="17.099" r="17.099" transform="translate(3.251)"/>
    <path id="Path_2938" data-name="Path 2938" class="cls-2" d="M15.183,35.024l3.542-3.542A5.456,5.456,0,0,0,23.488,30.2l7.756-7.756-5.069-7.45h-5.5a3.52,3.52,0,0,0-2.931,1.038l-4.092,4.092L7,26.78Z" transform="translate(-2.161 -5.834)"/>
    <rect id="Rectangle_48" data-name="Rectangle 48" class="cls-3" width="5.191" height="14.656" transform="translate(1.449 22.592) rotate(-45)"/>
    <line id="Line_26" data-name="Line 26" class="cls-4" x2="1.221" y2="1.221" transform="translate(4.472 21.984)"/>
    <path id="Path_2939" data-name="Path 2939" class="cls-5" d="M42.728,11a7.328,7.328,0,0,0,0,14.656,7.266,7.266,0,0,0,4.885-1.893V12.893A7.266,7.266,0,0,0,42.728,11Z" transform="translate(-13.218 -4.283)"/>
    <path id="Path_2940" data-name="Path 2940" class="cls-6" d="M36.21,22H27.66L26.5,30s3.664-.611,4.824-3.725H35.6C39.141,26.275,38.408,22,36.21,22Z" transform="translate(-9.753 -8.565)"/>
    <path id="Path_2941" data-name="Path 2941" class="cls-7" d="M27.66,22H36.21c2.2,0,2.931,4.275-.611,4.275H31.324C30.1,29.389,26.5,30,26.5,30" transform="translate(-9.753 -8.565)"/>
    <path id="Path_2942" data-name="Path 2942" class="cls-7" d="M49.4,24.931v1.832h3.664V6H49.4V7.832" transform="translate(-18.669 -2.336)"/>
  </g>
</svg>
