<svg xmlns="http://www.w3.org/2000/svg" width="42" height="42" viewBox="0 0 42 42"><defs><style>.a{fill:rgba(255,255,255,0);}.b{fill:#e9eaeb;}.c,.d{fill:#fff;}.d,.e,.f{stroke:#3240a0;stroke-miterlimit:10;stroke-width:1.5px;}.e{fill:#fd3753;}.f{fill:none;}.g{fill:#3240a0;}</style></defs><g transform="translate(-2696 28)"><rect class="a" width="42" height="42" transform="translate(2696 -28)"/><g transform="translate(2697.551 -23)"><circle class="b" cx="17.099" cy="17.099" r="17.099" transform="translate(4.449 0)"/><g transform="translate(-8656.55 178.888)"><path class="c" d="M8667.173-154.189l13.711,1.385-9.629,5.135-6.442-5.135Z" transform="translate(-0.651 -1.871)"/><g transform="translate(8659 -161.789)"><path class="d" d="M21.886-22.395a1.731,1.731,0,0,1,1.458-.729h10.73c.81,0,5.266-4.469,5.833-5.1a38.981,38.981,0,0,0,3.646-5.833,2.917,2.917,0,0,0-2.917-.729c-1.289.3-2.047,1.225-2.917,2.917l-3.343,1.735" transform="translate(-10.949 34.891)"/><path class="d" d="M21.135-25.6H27.7c2.917,0,2.917-3.646,0-3.646H23.322c-.607,0-1.747-1.458-2.71-1.458H16.967a5.1,5.1,0,0,0-2.917,1.458c-1.093,1.093-3.02,2.917-3.02,2.917" transform="translate(-6.03 32.995)"/><path class="e" d="M9.907-13.708l3.646-3.646L5.532-25.374,1.886-21.729Z" transform="translate(-1.886 30.579)"/><path class="f" d="M8.553-18.708l1.458,1.458" transform="translate(-4.907 27.558)"/></g></g><g transform="translate(-8744.14 195.974)"><path class="e" d="M127.607-156.613a10.111,10.111,0,0,1,8.586-4.762,10.119,10.119,0,0,1,10.119,10.119,10.119,10.119,0,0,1-10.119,10.119,10.113,10.113,0,0,1-8.587-4.762" transform="translate(8626.667 -37.626)"/><path class="f" d="M140.484-144.922a1.191,1.191,0,0,1-1.19,1.19h-.6a1.191,1.191,0,0,1-1.19-1.19v-.6a1.19,1.19,0,0,1,1.19-1.19h.6a1.191,1.191,0,0,1,1.19,1.19Z" transform="translate(8621.186 -45.745)"/><path class="f" d="M117.553-145.374H106.84" transform="translate(8637.114 -46.484)"/><path class="f" d="M125.388-138.708H118.84" transform="translate(8631.519 -50.174)"/><path class="f" d="M119.769-132.041H110.84" transform="translate(8635.947 -53.865)"/><path class="f" d="M152.484-135.589a1.191,1.191,0,0,1-1.19,1.19h-.6a1.191,1.191,0,0,1-1.19-1.19v-.6a1.191,1.191,0,0,1,1.19-1.19h.6a1.191,1.191,0,0,1,1.19,1.19Z" transform="translate(8614.542 -50.912)"/><path class="f" d="M141.508-139.708l4.762-8.333" transform="translate(8618.973 -45.007)"/></g><path class="g" d="M210.815,227.136h-.068c-.2,1.427-.6,2.557-2.74,2.765v.077c2.135.208,2.545,1.338,2.741,2.765h.067c.2-1.427.6-2.557,2.74-2.765V229.9C211.42,229.693,211.01,228.563,210.815,227.136Z" transform="translate(-206.165 -212.644)"/><path class="g" d="M220.949,212.514h-.093c-.268,1.958-.83,3.507-3.759,3.793v.106c2.929.286,3.49,1.834,3.759,3.793h.092c.269-1.958.83-3.507,3.759-3.793v-.106C221.779,216.021,221.217,214.472,220.949,212.514Z" transform="translate(-186.258 -215.541)"/></g></g></svg>