<svg xmlns="http://www.w3.org/2000/svg" xmlns:xlink="http://www.w3.org/1999/xlink" width="24.464" height="28" viewBox="0 0 24.464 28"><defs><style>.a{fill:url(#a);}.b{fill:#fff;}.c{fill:#8590d6;}.d{fill:#fa3b57;}.e{filter:url(#b);}</style><linearGradient id="a" x1="0.549" x2="0.549" y2="1" gradientUnits="objectBoundingBox"><stop offset="0" stop-color="#283593"/><stop offset="1" stop-color="#3845a7"/></linearGradient><filter id="b" x="0" y="0" width="24.464" height="28" filterUnits="userSpaceOnUse"><feOffset dy="1" input="SourceAlpha"/><feGaussianBlur stdDeviation="1" result="c"/><feFlood flood-opacity="0.161"/><feComposite operator="in" in2="c"/><feComposite in="SourceGraphic"/></filter></defs><g transform="translate(-0.756 1.185)"><g transform="translate(3.756 0.815)"><g transform="translate(0)"><path class="a" d="M42.859,30.9h0c-.015-.4-.019-.8-.019-1.209h.015V26.661c0-.993,0-2.019.007-3.021A2.325,2.325,0,0,0,41,21.228c-1.151-.279-2.324-.572-3.459-.856l-.505-.127c-.858-.215-1.746-.437-2.62-.652a3.286,3.286,0,0,0-1.544,0c-.96.236-1.917.475-2.806.7-1.1.276-2.473.619-3.778.934A2.356,2.356,0,0,0,24.4,23.659l.005,1.079c.011,2.077.022,4.225-.008,6.328a8.74,8.74,0,0,0,2.064,5.818A15.883,15.883,0,0,0,32.634,41.3a2.486,2.486,0,0,0,.985.2,2.627,2.627,0,0,0,1.03-.209,16.557,16.557,0,0,0,5.57-3.747A8.876,8.876,0,0,0,42.859,30.9Z" transform="translate(-24.401 -19.5)"/><path class="b" d="M44.4,36.8c-.022-.549-.016-1.1-.011-1.634,0-.24.005-.479.005-.719v-.8c0-.666,0-1.355,0-2.036-.883-.206-1.773-.42-2.635-.628-.7-.17-1.432-.344-2.148-.514a.417.417,0,0,0-.165,0c-.7.166-1.418.338-2.109.5-.878.211-1.784.429-2.682.638l0,.571c.009,1.534.017,3.121-.006,4.685a4.213,4.213,0,0,0,1.08,2.911,9.917,9.917,0,0,0,3.791,2.6,10.452,10.452,0,0,0,3.457-2.234A4.349,4.349,0,0,0,44.4,36.8Zm-1.691-2.223q-.647.8-1.3,1.6-1.051,1.3-2.1,2.6c-.4.488-.713.482-1.089-.012q-.932-1.225-1.863-2.451a.522.522,0,0,1,0-.749.574.574,0,0,1,.777.054c.456.379.909.762,1.364,1.142.073.061.152.116.3.23a1.388,1.388,0,0,1,.166-.253q1.437-1.39,2.885-2.77a.915.915,0,0,1,.377-.229.466.466,0,0,1,.548.234A.5.5,0,0,1,42.707,34.581Z" transform="translate(-30.37 -25.69)"/><g class="e" transform="matrix(1, 0, 0, 1, -3, -2)"><path class="c" d="M42.859,30.9h0c-.015-.4-.019-.8-.019-1.209h.015V26.661c0-.993,0-2.019.007-3.021A2.325,2.325,0,0,0,41,21.228c-1.151-.279-2.324-.572-3.459-.856l-.505-.127c-.858-.215-1.746-.437-2.62-.652a3.286,3.286,0,0,0-1.544,0c-.96.236-1.917.475-2.806.7-1.1.276-2.473.619-3.778.934A2.356,2.356,0,0,0,24.4,23.659l.005,1.079c.011,2.077.022,4.225-.008,6.328a8.74,8.74,0,0,0,2.064,5.818A15.883,15.883,0,0,0,32.634,41.3a2.486,2.486,0,0,0,.985.2,2.627,2.627,0,0,0,1.03-.209,16.557,16.557,0,0,0,5.57-3.747A8.876,8.876,0,0,0,42.859,30.9Zm-4.2,5.262h0a15.366,15.366,0,0,1-5.028,3.4A14.618,14.618,0,0,1,28.109,35.6a6.529,6.529,0,0,1-1.571-4.4c.035-2.458.022-4.951.009-7.363l0-.687c1.285-.312,2.579-.636,3.834-.951,1.047-.262,2.13-.533,3.2-.795a.352.352,0,0,1,.131,0c1.057.26,2.131.529,3.171.789,1.258.315,2.553.639,3.844.955-.007,1-.006,2,0,2.976V27.4c0,.375,0,.751-.008,1.127-.008.838-.017,1.7.016,2.57A6.724,6.724,0,0,1,38.66,36.165Z" transform="translate(-21.4 -17.5)"/></g><path class="d" d="M42.585,34.323q-.647.8-1.3,1.6-1.051,1.3-2.1,2.6c-.4.488-.713.482-1.089-.012q-.932-1.225-1.863-2.451a.522.522,0,0,1,0-.749.574.574,0,0,1,.777.054c.456.379.909.762,1.364,1.142.073.061.152.116.3.23a1.387,1.387,0,0,1,.166-.253q1.437-1.39,2.885-2.77a.915.915,0,0,1,.377-.229.466.466,0,0,1,.548.234A.5.5,0,0,1,42.585,34.323Z" transform="translate(-30.247 -25.431)"/></g></g></g></svg>